
<svg version="1.0" xmlns="http://www.w3.org/2000/svg"
 width="1280.000000pt" height="640.000000pt" viewBox="0 0 1280.000000 640.000000"
 preserveAspectRatio="xMidYMid meet">
<metadata>
Created by potrace 1.15, written by Peter Selinger 2001-2017
</metadata>
<g transform="translate(0.000000,640.000000) scale(0.100000,-0.100000)"
fill="#000000" stroke="none">
<path d="M6655 4690 c-8 -24 11 -60 30 -60 8 0 17 11 21 25 11 44 -37 78 -51
35z"/>
<path d="M6740 4661 c-15 -38 -6 -54 29 -46 26 6 27 4 23 -25 -5 -32 8 -39 28
-15 16 19 5 63 -22 93 -29 30 -43 28 -58 -7z"/>
<path d="M6582 4663 c-7 -3 -30 -30 -51 -61 -47 -69 -76 -98 -86 -83 -9 15
-79 13 -140 -3 -59 -17 -77 -9 -139 61 -42 48 -91 79 -101 63 -3 -5 1 -20 9
-32 19 -29 24 -214 7 -246 -17 -32 -14 -45 29 -127 38 -73 40 -80 40 -170 0
-93 1 -95 30 -122 29 -26 40 -53 20 -53 -16 0 -80 -62 -97 -94 -9 -17 -33 -74
-52 -126 -30 -78 -41 -96 -63 -104 -22 -8 -34 -5 -68 18 -22 14 -53 29 -69 32
-37 8 -53 -18 -49 -78 3 -37 0 -44 -31 -65 -42 -29 -85 -41 -186 -53 -110 -13
-263 -1 -250 21 4 5 1 33 -5 61 -10 39 -25 64 -71 112 l-58 61 -1 -37 c0 -43
-15 -88 -29 -88 -6 0 -28 26 -50 59 -40 59 -56 71 -92 71 -16 0 -18 -3 -10
-19 27 -49 33 -116 20 -223 -7 -60 -15 -108 -18 -108 -25 0 -159 34 -182 45
-35 19 -44 59 -35 164 9 98 4 112 -35 101 -69 -20 -132 -93 -163 -189 -14 -43
-61 -283 -73 -377 -5 -39 -3 -43 41 -79 25 -20 46 -43 46 -50 0 -8 25 -21 57
-30 31 -9 110 -43 175 -76 65 -33 144 -66 175 -74 31 -8 58 -17 60 -19 6 -6
-54 -49 -106 -77 -24 -13 -53 -30 -65 -36 -63 -38 -252 5 -319 72 -19 19 -42
35 -50 35 -8 0 -18 14 -23 32 -8 27 -15 32 -39 33 -30 0 -29 -1 -49 86 -3 15
-13 30 -22 33 -30 12 -11 -95 35 -190 35 -74 38 -84 24 -96 -12 -10 -14 -26
-10 -82 3 -38 1 -104 -5 -147 -14 -100 -2 -136 87 -244 36 -44 68 -90 71 -103
8 -30 -36 -97 -82 -124 -19 -11 -34 -26 -34 -32 0 -19 -34 -46 -46 -38 -6 4
-14 16 -18 27 -6 16 -9 17 -16 5 -6 -8 -10 -23 -10 -32 0 -25 -15 -22 -44 9
-32 34 -46 22 -22 -17 15 -27 16 -31 2 -36 -28 -11 -46 4 -46 36 0 29 -13 40
-25 20 -10 -17 -20 -11 -39 21 -10 18 -50 68 -89 113 -102 119 -114 140 -120
221 -3 39 -26 141 -52 229 -25 87 -48 178 -52 202 -5 41 -10 46 -52 67 -65 33
-101 88 -108 164 -7 80 1 120 37 177 l30 47 29 -16 c39 -20 39 -20 54 18 23
54 99 112 209 159 65 28 103 50 108 63 5 11 27 38 49 60 28 26 46 56 56 89 19
63 19 216 1 321 -16 90 -52 234 -60 242 -14 14 -109 13 -198 -1 -139 -23 -180
-21 -224 9 -38 26 -78 33 -89 15 -3 -5 5 -15 19 -21 14 -7 29 -25 35 -40 9
-27 14 -29 63 -29 29 0 107 9 173 19 216 34 192 35 199 -10 9 -55 0 -64 -35
-35 -37 31 -77 40 -148 31 -108 -13 -126 -21 -190 -92 -57 -64 -63 -68 -106
-68 -25 -1 -45 -4 -45 -8 0 -4 0 -11 0 -17 0 -5 13 -16 30 -25 21 -11 30 -23
30 -40 0 -33 16 -39 40 -15 12 12 20 33 20 54 0 40 55 103 118 135 38 19 146
51 174 51 8 0 33 -16 55 -35 23 -19 48 -35 56 -35 21 0 38 -76 45 -193 10
-203 -53 -335 -184 -382 -114 -41 -151 -64 -184 -114 -17 -27 -38 -52 -47 -55
-21 -8 -49 18 -84 79 -35 60 -37 102 -9 210 27 105 26 146 -3 174 -22 20 -25
20 -37 6 -11 -13 -11 -28 -2 -75 9 -51 8 -65 -9 -109 -10 -28 -19 -63 -19 -77
0 -23 -3 -25 -25 -20 -22 6 -25 3 -25 -19 0 -18 -5 -25 -20 -25 -14 0 -20 -7
-20 -21 0 -11 -10 -29 -22 -39 -21 -16 -21 -20 -9 -44 14 -25 13 -28 -29 -64
-23 -20 -59 -47 -79 -59 -37 -24 -105 -31 -116 -13 -10 16 -22 12 -28 -10 -7
-26 -27 -26 -27 -1 0 21 44 61 66 61 44 0 124 119 124 185 0 37 -31 79 -53 72
-7 -2 -20 -30 -31 -63 -32 -103 -47 -123 -133 -190 l-83 -64 -15 30 c-9 17
-21 30 -29 30 -7 0 -65 -24 -128 -54 -63 -30 -148 -64 -189 -76 -83 -23 -239
-38 -239 -23 0 19 59 101 135 188 101 116 145 185 145 227 0 18 9 47 20 63 11
17 20 40 20 52 0 12 11 38 23 57 17 24 26 54 30 105 9 113 30 146 196 315 82
83 160 170 175 193 30 50 78 77 173 99 120 28 215 5 293 -71 57 -56 83 -65
180 -65 107 0 161 13 324 77 76 30 166 61 200 70 77 21 238 20 396 -1 63 -9
189 -21 280 -27 197 -13 306 -32 340 -59 14 -11 47 -33 74 -48 27 -15 79 -55
115 -89 36 -35 69 -63 73 -63 4 0 41 -51 81 -112 41 -62 87 -126 103 -142 28
-27 29 -28 32 -7 2 12 -8 35 -22 52 -14 17 -26 40 -26 50 0 29 -52 101 -139
193 -94 98 -183 166 -280 214 -70 35 -80 37 -210 43 -75 4 -161 13 -191 19
-90 18 -271 39 -402 46 -110 6 -129 4 -183 -15 -32 -11 -73 -21 -91 -21 -18 0
-80 -24 -145 -57 -109 -54 -118 -56 -204 -60 -49 -2 -106 -9 -127 -15 -49 -14
-81 -5 -131 41 -23 21 -56 45 -72 54 -52 26 -150 47 -223 47 -109 0 -168 -36
-306 -185 -61 -66 -148 -156 -193 -201 -90 -88 -95 -96 -123 -224 -18 -85 -49
-162 -70 -175 -5 -3 -10 -20 -10 -36 0 -17 -7 -43 -15 -59 -9 -17 -13 -40 -10
-53 5 -19 -7 -39 -56 -98 -34 -41 -80 -101 -101 -134 -22 -33 -51 -67 -66 -75
-17 -8 -66 -16 -129 -18 -65 -3 -106 -9 -113 -17 -16 -19 12 -37 73 -46 30 -5
57 -16 65 -26 20 -28 -3 -29 -80 -2 -53 18 -70 21 -80 11 -9 -9 -7 -17 10 -35
42 -44 31 -54 -64 -62 -141 -12 -241 7 -257 49 -3 8 14 58 39 111 55 119 74
189 74 281 0 69 -1 72 -26 78 -54 14 -156 90 -246 186 -74 79 -100 100 -122
100 -28 0 -46 28 -46 73 -1 35 -43 130 -89 196 -22 33 -41 63 -41 65 0 2 38
44 85 93 47 48 88 99 91 113 16 67 30 96 70 141 73 83 94 140 64 177 -17 21
-22 22 -65 12 -25 -6 -83 -23 -128 -39 -117 -40 -137 -44 -137 -28 0 19 -33
47 -54 47 -24 0 -67 -23 -178 -96 l-96 -64 -31 -93 c-48 -141 -88 -207 -146
-237 -27 -14 -87 -62 -134 -106 l-86 -82 -25 -113 c-14 -63 -25 -145 -25 -183
0 -68 0 -68 43 -105 23 -20 42 -41 42 -47 0 -5 -20 -15 -45 -22 -24 -6 -68
-26 -97 -44 l-53 -33 -120 4 c-66 2 -170 5 -231 5 l-110 1 -63 -50 c-35 -27
-79 -63 -98 -79 -60 -51 -81 -117 -45 -149 32 -29 65 -29 147 -2 44 14 109 28
145 31 138 13 364 -37 488 -107 50 -28 54 -29 82 -14 16 8 41 15 56 15 23 0
25 -3 19 -22 -36 -113 -28 -212 25 -325 28 -60 28 -63 10 -73 -10 -5 -34 -10
-53 -10 -29 0 -42 -8 -79 -48 -23 -27 -58 -79 -76 -116 -43 -87 -39 -113 33
-223 30 -45 57 -94 61 -110 4 -15 20 -43 37 -60 17 -18 28 -36 24 -40 -4 -3
-53 -1 -110 5 -179 21 -236 11 -257 -44 -19 -50 -12 -82 21 -100 95 -49 245
-67 328 -39 38 12 81 17 151 16 89 -2 100 0 125 21 44 39 45 92 1 184 -20 42
-35 79 -32 81 2 2 27 -7 56 -22 50 -26 120 -32 111 -10 -5 13 -116 60 -162 69
-25 4 -39 14 -47 31 -6 14 -18 25 -27 25 -25 0 -18 -49 16 -101 18 -29 29 -58
27 -73 -2 -16 5 -30 21 -43 24 -20 24 -20 7 -65 l-18 -45 -116 -6 c-64 -4
-147 -10 -184 -13 -65 -7 -67 -6 -61 15 8 30 -23 28 -53 -4 -46 -50 -65 -7
-28 66 13 26 13 26 66 13 100 -26 218 -10 218 31 0 25 -20 67 -52 107 -17 22
-39 54 -48 71 -9 18 -31 57 -48 87 -36 62 -41 116 -17 173 33 80 120 146 191
147 27 0 36 -7 68 -59 57 -94 154 -164 243 -178 21 -3 50 -15 64 -27 15 -12
41 -29 58 -38 37 -20 39 -34 8 -42 -23 -5 -47 -42 -47 -72 0 -11 -6 -13 -22
-8 -61 20 -91 -4 -39 -30 34 -18 84 -21 111 -6 15 8 18 15 10 34 -12 32 -6 36
57 36 37 0 83 -12 158 -40 132 -50 212 -55 270 -15 20 13 64 30 98 36 44 9 71
21 97 45 20 18 49 36 64 40 l29 7 -5 -96 c-5 -111 -20 -140 -68 -130 -65 13
-137 -37 -164 -115 -15 -42 -15 -43 9 -52 122 -47 284 -55 378 -20 31 12 60
27 64 33 7 10 13 171 16 462 1 93 -16 136 -64 161 -26 13 -39 14 -73 4 -23 -6
-64 -10 -91 -8 l-50 3 3 37 c2 23 -5 53 -18 78 -12 23 -20 50 -18 61 3 19 4
19 38 1 35 -17 38 -26 24 -69 -5 -19 -2 -23 15 -23 16 0 21 6 21 24 0 40 34
56 118 56 198 0 461 91 675 235 109 73 111 75 131 113 15 29 68 72 89 72 4 0
5 -16 1 -35 -6 -31 -4 -35 15 -35 12 0 35 14 51 32 23 25 39 32 70 34 25 1 56
12 79 28 20 14 45 26 55 26 17 0 18 -7 13 -67 -4 -38 -9 -89 -13 -115 l-7 -47
64 -67 64 -66 0 -296 c0 -164 4 -322 9 -352 8 -54 8 -56 -28 -99 -20 -23 -36
-48 -37 -54 -5 -49 24 -158 47 -181 10 -11 34 -16 74 -16 32 0 70 -4 85 -10
19 -7 33 -6 53 4 15 8 73 23 130 35 122 24 140 33 148 69 28 123 38 128 69 34
11 -34 30 -71 42 -83 22 -22 22 -22 90 -5 121 30 252 130 299 231 43 90 30
129 -67 209 -77 64 -83 79 -74 228 5 83 3 132 -4 152 -7 17 -8 32 -3 35 5 3
14 16 21 29 16 29 31 28 131 -14 132 -54 157 -58 257 -34 131 31 123 36 123
-75 0 -100 -13 -245 -31 -355 -11 -62 -14 -67 -63 -106 -82 -65 -118 -131
-100 -183 11 -32 90 -86 147 -102 70 -19 168 -26 242 -17 100 12 134 25 156
62 16 27 25 31 61 32 59 1 106 22 154 69 22 22 53 48 67 58 39 26 44 60 17
118 -13 27 -22 50 -19 51 36 22 210 108 218 108 6 0 11 -15 11 -34 0 -49 12
-76 59 -130 48 -55 51 -77 15 -105 -33 -26 -52 -26 -84 -1 -37 29 -68 26 -76
-7 -9 -47 -23 -73 -37 -73 -9 0 -12 9 -10 28 3 15 -3 36 -11 47 -15 19 -15 18
-16 -21 0 -50 -26 -63 -64 -33 -25 19 -25 19 -36 -1 -19 -36 -8 -64 30 -77 32
-12 102 -9 136 4 8 3 16 -5 20 -22 10 -40 60 -57 168 -56 99 0 166 15 240 52
l48 24 2 60 c1 33 8 81 16 107 13 45 13 52 -13 131 -30 93 -32 106 -16 140
l11 25 55 -25 c30 -14 96 -32 146 -41 115 -19 222 -8 420 43 188 49 243 71
294 118 40 37 51 41 106 45 61 4 62 4 45 -15 -10 -10 -33 -61 -52 -112 -40
-108 -48 -118 -141 -181 -39 -26 -77 -55 -84 -64 -8 -9 -28 -16 -48 -16 -71 0
-126 -43 -151 -118 -11 -32 -10 -33 36 -67 26 -19 71 -42 100 -51 45 -13 56
-14 80 -1 26 12 31 12 53 -6 29 -23 85 -18 157 13 51 23 62 34 62 68 0 68 78
164 180 222 56 33 60 38 66 80 9 67 13 78 33 85 27 8 60 -7 116 -55 28 -23 79
-55 115 -71 77 -35 90 -50 90 -100 0 -65 -15 -89 -54 -89 -19 0 -47 -5 -62
-12 -25 -12 -26 -15 -22 -70 5 -62 23 -96 72 -132 21 -16 46 -22 105 -24 66
-3 88 0 147 23 75 30 94 46 94 82 0 27 30 32 50 8 22 -26 40 -17 120 65 59 59
83 92 97 130 14 40 29 59 63 84 25 18 107 92 183 164 101 97 153 139 201 162
77 38 167 49 235 28 38 -12 48 -21 75 -70 17 -31 63 -95 101 -142 73 -89 135
-189 135 -218 0 -22 -24 -35 -89 -49 -56 -12 -96 -38 -104 -69 -7 -28 33 -74
84 -94 44 -18 167 -23 265 -10 69 8 76 19 84 149 5 85 4 104 -11 125 -35 51
-53 126 -85 350 -27 181 -32 165 58 165 l77 0 213 108 c136 68 224 107 244
107 39 0 70 29 33 31 -95 6 -163 -14 -275 -82 -127 -76 -207 -110 -274 -116
-59 -6 -72 1 -49 24 14 14 3 33 -18 33 -9 0 -31 11 -49 25 -36 28 -74 33 -74
10 0 -8 18 -26 40 -40 45 -28 46 -32 24 -94 -17 -49 -17 -42 31 -316 14 -83
37 -173 50 -201 19 -44 22 -63 18 -120 -8 -101 -8 -100 -113 -108 -109 -9
-135 2 -99 41 13 12 31 23 41 23 24 0 23 21 -2 27 -27 7 -25 21 3 25 32 4 32
35 1 109 -22 52 -28 87 -34 185 -8 132 -13 152 -36 133 -18 -15 -18 -56 1
-109 34 -97 10 -93 -48 8 -118 208 -167 434 -116 545 l12 27 39 -36 c21 -19
51 -37 66 -40 20 -4 32 -16 44 -45 16 -38 48 -54 48 -24 0 31 -29 70 -73 100
-25 17 -49 43 -56 60 -6 16 -39 61 -72 100 -83 93 -92 117 -83 218 6 81 6 82
-28 132 -44 64 -50 82 -38 106 9 16 22 19 90 19 85 0 99 10 50 35 -45 23 -84
18 -189 -24 -96 -39 -98 -39 -251 -42 -146 -3 -158 -2 -191 19 -39 24 -64 28
-74 12 -6 -9 40 -60 55 -60 16 0 30 -56 30 -119 0 -51 4 -72 16 -82 14 -11 18
-10 30 6 18 25 18 47 -3 111 -9 30 -14 56 -11 60 10 9 79 23 116 24 30 0 35
-5 54 -46 16 -38 19 -62 16 -134 -3 -84 -2 -88 15 -73 35 32 45 132 22 218 -5
17 -1 20 32 22 21 1 65 11 97 23 33 11 60 19 61 18 2 -2 20 -61 41 -133 30
-102 38 -148 39 -210 0 -76 -3 -86 -49 -180 -60 -124 -65 -184 -19 -248 36
-52 58 -61 36 -15 -12 23 -17 58 -16 113 0 89 21 161 61 214 24 32 26 33 39
16 18 -25 17 -128 -3 -212 -22 -93 -14 -149 40 -273 25 -58 46 -111 46 -118 0
-31 -27 -2 -57 58 -60 124 -60 123 -85 106 -33 -23 -50 -20 -108 19 -29 20
-55 34 -57 32 -2 -2 1 -16 6 -30 11 -28 9 -31 -30 -40 -34 -8 -51 10 -79 85
-25 67 -37 79 -46 44 -8 -33 10 -84 44 -126 l28 -33 -88 -81 c-147 -134 -229
-203 -284 -238 -30 -19 -55 -43 -59 -55 -3 -13 -19 -30 -36 -38 -25 -13 -28
-19 -18 -31 9 -11 9 -17 -1 -29 -16 -19 -30 -19 -30 -1 0 10 -16 6 -56 -16
-53 -29 -55 -31 -35 -45 49 -34 12 -70 -57 -57 l-47 9 0 72 0 72 35 15 c19 9
61 25 92 36 48 18 61 28 83 66 15 25 46 69 69 98 24 29 49 70 56 92 14 46 56
114 70 114 6 0 10 -16 10 -36 0 -38 15 -74 30 -74 6 0 10 26 10 58 1 67 18
119 54 167 33 43 42 44 50 5 10 -54 24 -31 31 53 9 110 20 144 55 162 44 23
55 19 75 -25 10 -22 24 -45 32 -52 12 -10 13 1 6 78 -4 49 -7 146 -6 217 1
131 -5 148 -33 81 -8 -18 -14 -57 -15 -86 0 -69 -13 -146 -26 -159 -12 -12
-75 11 -88 30 -4 7 0 22 9 35 20 31 10 39 -24 20 -24 -15 -31 -15 -90 2 -55
17 -65 23 -77 52 -23 56 -38 34 -35 -54 2 -62 0 -76 -10 -66 -15 15 -16 107
-4 192 l8 55 -28 -28 c-27 -25 -29 -34 -32 -110 -2 -64 1 -90 15 -116 38 -73
88 -67 88 10 0 43 1 44 29 41 39 -4 95 -34 126 -66 22 -25 23 -29 11 -59 -8
-18 -16 -52 -18 -77 -4 -36 -11 -50 -37 -70 -17 -14 -72 -68 -122 -121 -76
-80 -96 -108 -124 -175 -50 -121 -120 -209 -183 -233 -55 -21 -57 -19 -57 77
0 99 -2 103 -78 141 -58 29 -76 72 -67 155 10 79 17 98 62 153 34 41 38 52 37
102 0 39 -7 70 -23 101 -13 24 -32 68 -42 98 -10 29 -30 67 -44 83 -14 17 -25
41 -25 54 0 13 -18 57 -40 99 -44 83 -49 106 -22 106 9 0 28 3 41 7 20 5 22 3
17 -14 -10 -30 3 -53 30 -53 17 0 24 6 24 20 0 11 5 20 10 20 20 0 9 31 -15
42 -14 6 -25 14 -25 18 0 8 59 24 130 35 66 11 76 18 111 90 40 82 59 100 59
57 0 -17 -5 -43 -12 -57 -14 -31 -6 -40 20 -26 31 17 45 70 32 126 -16 72 -1
99 74 130 l39 16 -5 -26 c-6 -30 15 -46 35 -26 22 22 37 12 37 -24 0 -19 4
-35 9 -35 16 0 42 32 39 48 -6 28 -73 72 -129 84 -84 17 -102 5 -171 -126 -32
-60 -68 -120 -80 -134 -33 -35 -91 -62 -134 -62 -26 0 -46 -8 -71 -31 -20 -17
-51 -38 -70 -47 -33 -16 -35 -16 -49 3 -45 65 -160 195 -173 195 -8 0 -63 16
-123 35 -103 34 -114 35 -202 29 -51 -4 -109 -4 -128 0 l-36 6 -4 90 c-4 86
-7 95 -65 212 -34 68 -64 133 -68 145 -11 39 -83 99 -170 141 -73 36 -86 46
-91 71 -6 29 -37 71 -53 71 -5 0 -20 -9 -34 -20 -14 -11 -30 -20 -35 -20 -6 0
-12 -12 -14 -27 -2 -20 -9 -29 -25 -31 -20 -3 -21 -6 -12 -23 5 -11 9 -37 7
-57 -3 -34 -6 -37 -36 -40 -25 -3 -32 -8 -30 -20 2 -12 14 -17 38 -17 38 0 52
-24 30 -50 -18 -21 -38 -18 -72 10 -28 24 -78 34 -78 16 0 -5 11 -16 25 -25
33 -22 32 -28 -11 -51 -41 -22 -76 -69 -129 -175 -46 -93 -78 -136 -115 -155
-31 -16 -36 -12 -77 51 -11 18 -12 18 -12 -2 -1 -12 8 -33 19 -47 11 -14 20
-32 20 -40 0 -21 -48 -57 -66 -50 -9 3 -12 9 -6 12 24 16 28 44 16 119 -7 42
-13 96 -13 118 -1 40 0 42 35 47 44 7 64 23 64 49 0 20 -1 20 -26 3 -53 -34
-33 -5 29 44 56 44 77 68 77 87 0 2 -9 4 -21 4 -11 0 -38 -20 -61 -45 -33 -36
-48 -45 -75 -45 -30 0 -73 27 -73 48 -2 43 -20 191 -25 205 -5 12 -2 17 8 17
8 0 17 5 19 10 2 7 13 7 34 0 24 -9 45 -8 91 4 32 8 69 13 81 9 19 -5 35 5 80
50 31 30 67 58 79 61 l22 7 -20 56 c-23 69 -18 91 37 155 34 40 41 54 33 65
-12 13 -25 15 -47 6z m-4722 -174 c0 -11 -24 -46 -54 -77 -41 -44 -57 -70 -71
-117 -9 -33 -28 -79 -42 -102 -31 -54 -125 -141 -186 -173 -26 -14 -46 -29
-44 -35 2 -5 29 -11 59 -13 52 -3 57 -5 67 -32 5 -17 23 -49 39 -72 27 -39 30
-53 34 -143 3 -56 0 -110 -5 -123 -6 -12 -41 -42 -78 -67 -79 -52 -90 -65 -54
-65 42 0 76 23 147 100 l66 72 43 -23 c23 -13 72 -60 109 -104 66 -79 119
-117 181 -129 20 -4 28 -14 33 -37 16 -80 -4 -200 -46 -283 l-20 -40 -14 27
c-8 15 -16 55 -18 89 -6 95 -34 106 -161 64 -64 -21 -71 -22 -79 -7 -5 9 -20
29 -33 44 -12 16 -23 39 -23 53 0 31 -28 32 -36 0 -3 -15 3 -42 18 -72 21 -43
23 -62 22 -150 -1 -56 -7 -111 -13 -122 -6 -10 -46 -38 -91 -61 l-80 -42 0
-42 c0 -54 28 -107 71 -132 52 -31 166 -27 239 8 30 15 63 32 73 39 15 11 24
9 60 -11 23 -13 63 -35 88 -47 50 -25 57 -39 79 -168 12 -74 30 -101 74 -116
30 -9 42 -8 84 10 66 28 92 24 115 -20 19 -36 19 -109 1 -332 -4 -47 -2 -89 4
-108 15 -41 -5 -73 -61 -102 -45 -23 -144 -34 -166 -19 -20 13 1 61 27 61 14
0 18 8 18 33 0 21 10 47 27 68 24 31 27 45 27 108 0 70 -17 126 -44 143 -29
19 -69 7 -105 -31 -27 -29 -46 -40 -80 -45 -25 -4 -76 -20 -114 -37 -59 -26
-76 -30 -121 -24 -88 12 -134 39 -226 135 -48 50 -89 90 -93 90 -18 0 -4 -36
28 -71 19 -22 35 -44 35 -49 0 -27 -47 -2 -150 79 -51 41 -60 44 -131 56 -55
8 -119 72 -216 214 l-86 126 1 101 c1 105 19 200 51 263 10 20 28 81 39 136
19 87 26 104 55 131 19 18 63 41 100 53 37 13 67 25 67 29 0 15 -47 72 -68 81
-47 22 -79 13 -125 -34 -62 -62 -105 -59 -72 5 26 50 -8 72 -39 25 -22 -33
-48 -31 -101 8 l-44 32 0 75 c-1 216 90 362 290 464 134 69 149 83 204 186 27
51 58 98 69 106 78 54 143 94 154 94 21 0 4 -19 -36 -39 -44 -23 -67 -61 -118
-196 -38 -104 -63 -148 -98 -177 -17 -14 -18 -19 -7 -32 8 -9 29 -16 47 -16
33 0 34 1 34 43 0 23 7 52 15 64 8 11 33 69 56 128 42 109 89 177 131 191 15
4 18 12 14 30 -4 16 -2 26 6 28 124 39 217 65 231 65 11 1 17 -6 17 -20z
m-330 -11 c0 -30 -39 -71 -100 -106 -63 -36 -67 -40 -111 -130 -30 -61 -56
-100 -75 -113 -36 -24 -48 -24 -39 -1 5 9 18 53 30 98 13 45 28 91 34 102 13
25 102 87 187 131 66 34 74 36 74 19z m5039 -573 c-18 -25 -34 -45 -36 -45
-12 0 1 33 23 59 40 47 49 37 13 -14z m362 -236 c16 -8 18 -13 8 -25 -17 -20
-159 -20 -159 1 0 7 8 19 18 24 23 14 108 14 133 0z m-2179 -156 c-2 -56 2
-75 20 -108 26 -45 73 -80 127 -95 49 -14 134 -13 149 2 7 7 12 37 12 68 0 86
30 110 44 35 8 -41 25 -52 55 -35 19 10 21 8 21 -18 0 -73 33 -111 83 -97 18
6 20 5 9 -6 -8 -8 -34 -14 -60 -14 -40 0 -47 -3 -47 -20 0 -17 8 -20 51 -23
61 -4 80 11 89 66 4 20 12 55 18 77 14 46 -6 43 212 30 141 -9 150 -6 282 81
80 54 166 89 249 101 40 6 54 -14 19 -27 -20 -8 -24 -14 -19 -33 3 -15 -2 -39
-15 -62 -24 -46 -20 -55 24 -55 19 0 37 -5 40 -10 4 -7 23 4 46 25 21 19 44
35 49 35 13 0 13 -27 0 -35 -5 -3 -10 -10 -10 -16 0 -16 34 -10 60 11 14 11
30 20 37 20 13 0 58 -68 50 -76 -3 -3 -10 4 -17 15 -6 12 -15 21 -20 21 -20 0
-9 -35 29 -99 21 -36 48 -100 60 -141 26 -92 53 -123 109 -123 59 0 123 42
222 145 102 105 145 138 179 138 60 1 341 152 341 183 0 7 8 32 18 56 l17 43
152 -6 c146 -5 273 -25 320 -50 22 -11 136 -139 186 -207 37 -51 41 -93 10
-97 -13 -2 -23 -7 -23 -11 0 -18 31 -33 54 -27 28 7 46 -15 46 -53 0 -26 -4
-26 -84 4 -76 29 -157 33 -176 10 -19 -23 -7 -28 63 -31 34 -1 96 -13 137 -26
73 -24 75 -26 113 -87 76 -125 96 -217 60 -284 l-17 -32 -7 76 c-6 75 -21 119
-39 119 -11 0 -12 -3 -14 -130 -3 -153 -44 -220 -205 -336 -100 -71 -106 -74
-161 -74 -80 0 -157 41 -275 146 l-95 85 0 68 c0 71 -16 105 -37 79 -20 -25
-23 -54 -10 -104 l13 -51 -42 -46 c-37 -42 -46 -46 -73 -41 -30 6 -31 5 -31
-26 0 -30 -2 -32 -27 -28 -16 3 -35 7 -43 9 -11 3 -16 -5 -18 -28 -4 -39 -22
-42 -66 -14 -33 22 -50 18 -41 -9 6 -19 9 -18 -107 -23 -32 -1 -38 -4 -38 -23
0 -31 -22 -36 -169 -37 -135 -1 -207 11 -298 48 -52 21 -59 27 -65 59 -4 20
-21 59 -37 88 -21 38 -35 82 -46 151 -9 54 -25 120 -35 148 -27 67 -26 79 15
169 30 66 34 82 25 105 -10 26 -11 27 -29 11 -11 -10 -22 -34 -26 -54 -3 -20
-16 -57 -27 -80 -25 -52 -21 -133 12 -247 25 -86 25 -111 3 -120 -15 -5 -13
-9 12 -22 43 -22 55 -41 55 -87 1 -23 7 -52 15 -66 16 -29 19 -59 6 -79 -12
-19 -56 -3 -165 60 -129 73 -179 91 -268 94 -89 4 -108 12 -139 62 -31 50 -38
176 -14 259 14 50 27 69 84 124 38 36 79 85 93 110 28 48 45 110 31 110 -4 0
-47 -54 -95 -120 -49 -66 -92 -120 -97 -120 -10 0 -26 45 -35 102 -6 30 -19
46 -79 95 -87 70 -87 70 -87 110 0 43 -28 111 -51 123 -26 15 -31 12 -19 -9 5
-11 10 -37 10 -58 0 -93 34 -149 124 -203 53 -32 67 -52 80 -111 14 -64 -47
-160 -127 -200 -44 -23 -59 -18 -33 10 19 21 3 42 -17 22 -17 -17 -24 -13 -31
20 -5 28 -8 30 -22 18 -14 -11 -18 -10 -30 6 -14 18 -14 18 -36 -2 -13 -11
-38 -28 -56 -37 -32 -17 -35 -16 -78 8 -35 20 -50 23 -70 16 -38 -15 -194 45
-291 111 -27 19 -54 29 -78 29 -46 0 -75 15 -75 40 0 11 4 20 9 20 5 0 51 -16
102 -36 79 -30 103 -35 152 -32 62 5 104 31 88 56 -7 11 -17 11 -56 -2 -55
-19 -84 -15 -202 26 -46 15 -104 28 -129 28 -43 0 -46 1 -40 23 4 12 16 83 27
157 24 166 43 243 70 287 19 31 64 73 78 73 3 0 5 -30 3 -67z m522 26 c20 -35
32 -121 22 -173 -10 -51 -22 -45 -30 14 -9 68 -25 99 -53 106 -28 7 -29 19 -3
61 22 37 38 35 64 -8z m605 17 c9 -10 9 -16 1 -21 -13 -8 -42 14 -34 26 8 13
20 11 33 -5z m-724 -47 c17 -32 19 -68 5 -89 -9 -13 -13 -12 -30 9 -26 30 -29
124 -5 114 9 -3 22 -18 30 -34z m1276 -19 c16 -29 19 -31 19 -12 0 13 6 22 15
22 10 0 15 -15 17 -57 3 -52 6 -58 26 -61 21 -3 22 -7 16 -50 -4 -35 1 -68 19
-127 37 -120 38 -131 10 -144 -61 -28 -81 -8 -117 110 -15 47 -35 94 -46 104
-15 13 -20 31 -20 67 0 43 2 48 23 48 12 0 29 5 37 10 12 8 5 20 -42 66 -32
31 -58 59 -58 63 0 4 19 5 41 2 35 -5 45 -12 60 -41z m-82 -16 c35 -29 40 -54
12 -54 -19 0 -71 52 -71 71 0 17 28 9 59 -17z m-5139 -55 c13 -8 9 -14 -19
-37 -38 -31 -113 -73 -119 -68 -7 7 25 60 50 82 36 33 63 40 88 23z m-208 -51
l37 -12 -6 -51 c-7 -75 -22 -114 -49 -131 -22 -15 -24 -21 -18 -83 6 -74 -7
-109 -29 -79 -6 9 -17 24 -23 34 -18 31 -44 10 -44 -36 0 -22 -4 -40 -10 -40
-5 0 -27 16 -48 35 -46 41 -80 55 -133 55 -22 0 -84 11 -137 24 -53 14 -110
26 -126 28 -41 4 -42 19 -1 61 72 74 25 68 -53 -6 -37 -37 -45 -40 -62 -29
-18 11 -27 7 -73 -27 -28 -22 -61 -41 -72 -43 -17 -3 -20 2 -18 35 4 58 -22
43 -48 -28 l-11 -30 -14 28 c-24 46 -6 66 144 163 62 39 87 41 292 23 168 -15
210 -6 331 72 97 62 99 63 171 37z m2754 -115 c4 -16 11 -31 16 -34 12 -8 -9
-89 -29 -111 -22 -25 -43 -22 -43 4 0 15 -3 19 -10 12 -8 -8 -8 -19 0 -38 14
-38 13 -56 -5 -56 -23 0 -39 74 -21 102 7 13 22 48 31 78 22 68 23 70 40 70 8
0 18 -12 21 -27z m-1786 -79 c14 -37 12 -64 -5 -64 -8 0 -19 9 -25 20 -6 11
-17 20 -25 20 -14 0 -17 -4 -19 -31 -1 -6 19 -21 44 -32 31 -15 46 -29 48 -44
5 -33 -24 -30 -81 8 -42 28 -47 35 -47 68 0 54 24 78 78 80 15 1 26 -7 32 -25z
m-140 -84 c0 -73 -21 -137 -41 -124 -6 3 -17 21 -25 40 -31 74 -6 153 49 154
15 0 17 -10 17 -70z m1980 45 c0 -8 -4 -15 -10 -15 -5 0 -10 7 -10 15 0 8 5
15 10 15 6 0 10 -7 10 -15z m-2780 -30 c0 -28 -15 -34 -24 -9 -10 25 -7 34 9
34 9 0 15 -9 15 -25z m2106 -77 c6 -21 7 -21 21 -2 12 16 15 17 23 4 11 -17 4
-30 -16 -30 -8 0 -55 -24 -104 -54 -110 -66 -175 -81 -360 -80 -139 0 -222 15
-265 48 -18 14 -10 15 90 10 207 -12 423 28 525 96 53 36 76 38 86 8z m-558
-4 c12 -4 22 -10 22 -15 0 -19 -47 -28 -89 -17 -33 9 -39 13 -30 24 12 15 58
18 97 8z m-644 -25 c18 -9 33 -9 57 0 18 6 34 9 36 7 3 -2 -16 -39 -41 -82
-25 -43 -51 -92 -56 -110 -15 -46 -142 -116 -219 -122 -50 -3 -59 -1 -80 22
-24 25 -24 26 -3 26 37 0 33 18 -10 42 -24 13 -44 31 -46 40 -4 21 58 42 103
34 32 -6 56 6 35 19 -22 13 -8 25 29 25 36 0 45 6 87 55 49 57 65 63 108 44z
m1062 -148 c-40 -41 -125 -84 -241 -121 -55 -17 -152 -49 -216 -71 -64 -21
-135 -39 -158 -39 -110 0 -308 68 -385 132 -29 25 -29 25 -16 71 7 26 17 47
22 47 5 0 46 -10 91 -21 109 -29 224 -30 299 -4 53 17 63 18 115 5 128 -30
311 -23 448 19 33 10 62 16 64 14 3 -2 -8 -16 -23 -32z m720 -106 c8 -19 19
-35 24 -35 6 0 10 -19 10 -43 0 -37 4 -45 29 -60 16 -9 36 -17 45 -17 23 0 20
-17 -5 -30 -30 -17 -60 7 -101 82 -40 73 -55 138 -32 138 8 0 22 -16 30 -35z
m1462 -10 c17 -13 29 -14 59 -6 96 27 115 14 183 -117 42 -81 74 -112 115
-112 22 0 19 -48 -4 -87 -11 -17 -48 -50 -83 -74 -114 -76 -108 -65 -108 -205
0 -96 -4 -131 -17 -159 -14 -29 -15 -39 -5 -53 22 -31 35 -62 29 -69 -7 -6
-149 -35 -151 -31 -1 2 -6 17 -12 33 -7 23 -16 31 -39 33 l-30 4 23 -24 c26
-29 27 -34 5 -42 -10 -4 -26 3 -44 20 -22 22 -30 24 -48 15 -22 -12 -26 -5
-33 59 -2 15 -10 26 -22 28 -16 3 -18 0 -11 -25 14 -51 11 -68 -11 -71 -11 -2
-32 6 -45 17 l-24 20 23 40 c16 29 19 41 9 41 -7 0 -18 -5 -25 -12 -15 -15
-15 -8 -2 26 5 14 33 41 63 60 l53 34 24 123 c13 68 23 150 21 182 -7 171 7
317 33 346 23 25 44 27 74 6z m371 -34 c27 -63 27 -112 2 -135 -57 -52 -118
63 -76 144 13 25 27 37 46 39 4 1 16 -21 28 -48z m-1701 -36 c29 -13 34 -18
22 -25 -19 -12 -87 -13 -95 -1 -5 8 20 41 31 41 3 0 21 -7 42 -15z m-77 -115
c24 -11 56 -20 70 -20 32 0 74 -32 95 -71 8 -16 19 -77 24 -134 13 -147 22
-172 95 -271 58 -77 65 -91 65 -133 0 -70 -4 -72 -121 -75 -57 -2 -112 -6
-121 -10 -13 -6 -20 0 -32 28 -8 20 -22 39 -31 42 -27 11 -65 -6 -84 -37 l-19
-30 -6 33 c-10 48 -10 57 3 118 8 38 10 123 5 278 -5 161 -4 222 4 222 6 0 30
-10 52 -21 29 -15 47 -19 60 -13 31 14 8 36 -44 41 -38 5 -49 11 -61 33 -8 15
-11 30 -8 34 8 8 5 9 54 -14z m4289 -52 c0 -89 47 -161 113 -173 21 -4 37 -13
37 -20 0 -7 5 -15 12 -17 19 -7 -7 -153 -39 -215 l-26 -53 18 -59 c10 -33 15
-65 13 -73 -3 -7 -34 -21 -69 -32 l-63 -18 -17 21 -18 21 -37 -25 c-41 -28
-47 -29 -75 -15 -31 17 -22 39 24 59 43 19 44 19 55 88 19 117 -5 160 -135
237 -35 20 -65 42 -69 47 -9 16 15 38 101 94 88 58 128 96 144 138 14 37 31
34 31 -5z m-2382 -81 c19 -19 28 -37 24 -44 -6 -9 -13 -7 -26 9 l-19 21 -18
-24 c-17 -23 -20 -23 -46 -9 -35 20 -39 56 -5 53 14 -2 22 3 22 12 0 26 35 17
68 -18z m400 -102 c128 -64 132 -67 144 -108 7 -23 12 -94 12 -157 1 -100 -2
-122 -23 -168 -20 -44 -28 -53 -45 -48 -12 3 -51 -1 -88 -8 -72 -14 -98 -7
-98 24 0 27 -14 25 -34 -5 -28 -43 -66 -28 -94 38 -7 15 -16 26 -21 23 -14 -9
-22 24 -11 45 17 30 40 24 40 -11 0 -28 2 -30 28 -24 53 12 109 45 120 70 18
37 14 76 -9 104 -45 56 -70 103 -102 197 -19 54 -38 106 -42 116 -7 17 -4 16
42 -2 27 -10 108 -49 181 -86z m-490 23 c2 -12 -3 -18 -16 -18 -22 0 -46 23
-35 34 13 13 48 1 51 -16z m-16 -45 c10 -9 18 -20 18 -25 0 -14 -49 -9 -83 8
-43 22 -44 24 -27 35 20 13 69 3 92 -18z m1984 -29 c-3 -9 -6 -24 -6 -35 0
-12 -7 -19 -20 -19 -13 0 -20 -7 -20 -20 0 -16 -7 -20 -34 -20 -22 0 -36 6
-40 16 -7 19 -8 17 22 33 12 6 22 20 22 31 0 21 13 28 54 29 22 1 27 -3 22
-15z m-2049 -15 c27 -11 50 -26 51 -32 12 -80 15 -88 32 -82 14 4 25 -5 44
-38 35 -59 35 -95 -1 -103 -16 -4 -51 -20 -79 -36 -28 -15 -63 -28 -78 -28
-24 0 -28 3 -23 23 2 12 8 30 12 40 5 12 3 17 -8 17 -20 0 -36 -21 -43 -59 -8
-38 -20 -47 -39 -31 -22 18 -18 54 11 112 23 44 24 54 13 75 -16 29 -16 112 0
141 15 28 44 28 108 1z m1856 -29 c15 -5 27 -14 27 -20 0 -17 -36 -11 -64 11
-29 23 -36 45 -8 29 9 -5 29 -14 45 -20z m7 -49 c72 -12 77 -15 60 -36 -24
-29 -89 -16 -137 28 -28 25 -30 42 -5 28 11 -6 47 -15 82 -20z m-93 -28 c52
-16 93 -44 93 -63 0 -13 -36 -13 -61 0 -15 8 -19 7 -19 -4 0 -9 9 -20 20 -26
47 -25 7 -60 -40 -36 -26 12 -29 12 -33 -5 -3 -13 -14 -19 -31 -19 -33 0 -34
-17 -1 -32 19 -8 35 -8 66 1 44 13 55 10 46 -13 -18 -45 -115 -63 -176 -33
-32 16 -34 16 -69 -8 -69 -47 -123 -24 -88 36 16 28 16 29 -1 29 -10 0 -26
-14 -36 -31 -18 -32 -40 -35 -45 -6 -2 9 6 30 18 47 19 26 28 30 68 30 60 0
137 43 187 105 21 25 40 45 43 45 3 0 29 -8 59 -17z m2193 -169 c0 -11 -61
-94 -69 -94 -18 0 -21 34 -6 57 18 27 75 56 75 37z m-1579 -66 c-12 -34 -41
-36 -41 -4 0 21 5 26 25 26 21 0 23 -3 16 -22z m-7211 -3 c-7 -8 -20 -30 -29
-47 -18 -37 -38 -47 -47 -24 -8 21 21 64 49 76 33 13 41 12 27 -5z m1479 -4
c11 -7 10 -14 -5 -40 -28 -47 -94 -56 -94 -13 0 39 66 74 99 53z m1511 -37 c0
-24 -4 -34 -12 -32 -15 5 -22 42 -14 64 10 25 26 5 26 -32z m130 6 c29 -29 26
-60 -4 -60 -53 0 -68 19 -46 61 13 24 25 24 50 -1z"/>
<path d="M1100 3833 c-30 -11 -50 -37 -50 -65 0 -36 26 -38 42 -3 6 14 15 25
20 25 5 0 7 -4 4 -9 -21 -34 41 -55 79 -27 17 12 18 17 7 40 -16 36 -62 53
-102 39z"/>
<path d="M1585 3700 c4 -6 -3 -26 -14 -45 -19 -33 -19 -65 -1 -65 14 0 50 51
50 71 0 28 -11 49 -27 49 -8 0 -11 -5 -8 -10z"/>
<path d="M2307 2335 c6 -18 34 -16 41 3 2 7 -6 12 -22 12 -19 0 -24 -4 -19
-15z"/>
<path d="M7315 3373 c-4 -10 -10 -74 -14 -143 -5 -69 -13 -136 -18 -150 -6
-14 -34 -54 -62 -89 -58 -72 -68 -99 -50 -132 12 -23 12 -23 30 17 9 23 35 70
58 105 22 36 54 95 72 133 30 64 31 72 24 139 -4 40 -7 87 -6 105 1 35 -22 45
-34 15z"/>
<path d="M5053 3273 c-20 -7 -15 -23 10 -32 61 -23 67 -23 67 -2 0 30 -42 49
-77 34z"/>
<path d="M5678 3275 c-5 -6 19 -119 33 -154 8 -19 12 -21 24 -11 20 17 20 99
-1 128 -16 23 -48 44 -56 37z"/>
<path d="M4700 3235 c0 -8 7 -15 15 -15 8 0 15 7 15 15 0 8 -7 15 -15 15 -8 0
-15 -7 -15 -15z"/>
<path d="M4958 3229 c-30 -17 -23 -40 10 -33 l27 5 -28 -25 c-16 -14 -25 -31
-22 -36 7 -11 84 -14 108 -4 22 8 9 40 -30 74 -37 33 -40 34 -65 19z"/>
<path d="M7391 3191 c-15 -28 -14 -61 3 -61 20 0 38 26 34 51 -4 30 -24 35
-37 10z"/>
<path d="M4635 3126 c-19 -14 -19 -15 8 -27 30 -14 34 -12 39 16 4 24 -21 30
-47 11z"/>
<path d="M7475 3121 c-47 -12 -70 -27 -109 -73 -46 -54 -76 -135 -83 -224 -6
-76 3 -96 31 -68 11 11 16 35 16 83 0 82 33 157 88 199 32 24 44 27 116 27 62
0 90 5 120 21 22 11 41 25 43 30 3 11 -180 15 -222 5z"/>
<path d="M7910 2966 c0 -14 28 -36 45 -36 4 0 5 10 3 23 -4 26 -48 38 -48 13z"/>
<path d="M7810 2955 c0 -8 7 -15 15 -15 8 0 15 7 15 15 0 8 -7 15 -15 15 -8 0
-15 -7 -15 -15z"/>
<path d="M7940 2795 c0 -18 5 -25 19 -25 26 0 36 17 21 35 -19 23 -40 18 -40
-10z"/>
<path d="M7195 2787 c-31 -85 -38 -107 -45 -134 -9 -37 -2 -41 29 -15 19 14
51 102 51 138 0 17 -30 26 -35 11z"/>
<path d="M7768 2765 c-6 -30 -2 -35 29 -35 27 0 28 3 7 35 -21 32 -30 32 -36
0z"/>
<path d="M5870 2685 c0 -16 6 -25 15 -25 9 0 15 9 15 25 0 16 -6 25 -15 25 -9
0 -15 -9 -15 -25z"/>
<path d="M5726 2615 c-6 -17 2 -45 13 -45 4 0 16 6 26 14 16 12 17 16 6 30
-17 20 -37 21 -45 1z"/>
<path d="M7934 2585 c-9 -21 3 -45 21 -45 20 0 20 46 0 54 -9 3 -18 -1 -21 -9z"/>
<path d="M5847 2584 c-14 -15 -6 -34 14 -34 14 0 19 5 17 17 -3 18 -20 27 -31
17z"/>
<path d="M7641 2511 c-20 -13 -6 -42 16 -34 21 8 34 24 27 35 -7 10 -25 10
-43 -1z"/>
<path d="M5980 2489 c0 -19 21 -50 31 -44 15 10 10 42 -7 49 -21 8 -24 8 -24
-5z"/>
<path d="M7750 2455 c0 -8 9 -15 20 -15 11 0 20 7 20 15 0 8 -9 15 -20 15 -11
0 -20 -7 -20 -15z"/>
<path d="M6105 2410 c-3 -5 1 -10 10 -10 9 0 13 5 10 10 -3 6 -8 10 -10 10 -2
0 -7 -4 -10 -10z"/>
<path d="M7895 2280 c4 -6 11 -8 16 -5 14 9 11 15 -7 15 -8 0 -12 -5 -9 -10z"/>
<path d="M8030 2255 c0 -24 6 -37 19 -45 23 -12 61 -13 61 -2 0 4 3 18 7 31 5
21 3 22 -16 16 -17 -5 -27 -1 -37 14 -22 31 -34 26 -34 -14z"/>
<path d="M5930 2320 c0 -5 7 -10 16 -10 8 0 12 5 9 10 -3 6 -10 10 -16 10 -5
0 -9 -4 -9 -10z"/>
<path d="M6145 2239 c-4 -6 -5 -12 -2 -15 7 -7 37 7 37 17 0 13 -27 11 -35 -2z"/>
<path d="M5432 2208 c3 -7 15 -14 29 -16 23 -2 23 -2 5 13 -24 18 -39 20 -34
3z"/>
<path d="M5976 4624 c-9 -8 -16 -20 -16 -25 0 -12 41 -28 58 -22 17 7 15 50
-4 57 -21 8 -20 8 -38 -10z"/>
<path d="M5920 4533 c0 -41 64 -71 77 -37 7 20 -14 41 -49 49 -23 6 -28 4 -28
-12z"/>
<path d="M6797 4483 c-16 -15 -6 -33 18 -33 27 0 32 9 13 28 -14 14 -22 15
-31 5z"/>
<path d="M5940 4436 c0 -14 10 -32 22 -40 25 -18 37 -19 57 -7 10 7 8 15 -15
40 -34 38 -64 41 -64 7z"/>
<path d="M6714 4416 c-5 -11 -26 -24 -49 -31 l-39 -11 22 -22 c32 -32 100 -31
141 4 46 38 41 58 -18 70 -43 9 -49 8 -57 -10z"/>
<path d="M10859 4415 c-30 -7 -102 -32 -160 -55 -57 -23 -121 -45 -142 -48
-32 -6 -42 -14 -65 -53 l-26 -47 19 -42 c17 -37 17 -45 5 -73 -8 -18 -15 -63
-14 -102 0 -59 6 -83 38 -155 20 -47 40 -90 42 -97 3 -6 -7 -18 -22 -26 -25
-13 -28 -20 -26 -55 3 -30 -2 -46 -21 -67 l-23 -28 -29 19 c-65 42 -425 25
-760 -37 -251 -46 -326 -63 -327 -74 0 -5 11 -17 25 -25 22 -12 35 -12 89 -1
69 14 56 20 122 -60 29 -35 33 -5 6 43 -44 78 24 65 84 -15 45 -62 106 -185
106 -215 0 -44 17 -82 36 -82 15 0 16 9 10 70 -11 111 -38 175 -101 241 -30
32 -55 62 -55 68 0 18 53 12 100 -11 81 -42 128 -129 151 -280 17 -106 17
-107 40 -79 25 31 24 47 -11 136 -16 42 -30 86 -30 99 0 13 -26 56 -60 100
l-60 76 31 0 c24 0 44 -13 93 -60 83 -79 116 -141 127 -238 10 -80 25 -132 40
-132 17 0 31 44 25 79 -20 127 -48 188 -141 301 -25 30 -45 58 -45 63 0 4 19
7 43 7 36 0 46 -5 70 -34 15 -19 27 -40 27 -47 0 -7 17 -27 39 -45 22 -19 56
-66 79 -111 34 -65 39 -82 29 -98 -6 -11 -11 -54 -11 -95 -1 -86 29 -167 72
-201 19 -15 27 -31 28 -59 3 -52 6 -56 64 -75 28 -9 54 -24 59 -33 5 -10 11
-53 14 -97 2 -44 7 -87 11 -95 5 -12 -9 -19 -64 -34 -85 -22 -147 -65 -176
-123 l-22 -43 46 -110 c51 -124 102 -192 163 -217 60 -24 37 -36 -53 -28 -74
7 -81 6 -104 -15 -34 -33 -40 -79 -16 -133 21 -48 52 -75 91 -79 20 -3 29 8
62 71 44 83 43 81 27 81 -7 0 -30 -19 -50 -42 -31 -36 -39 -40 -48 -28 -24 37
-12 59 47 85 31 14 82 33 112 41 31 9 58 18 60 20 10 9 -29 38 -86 64 -73 33
-113 70 -113 103 0 13 -9 32 -19 41 -24 21 -51 97 -51 140 0 40 32 91 67 110
33 17 141 38 154 30 5 -3 9 -11 9 -19 0 -7 27 -39 61 -71 33 -33 67 -72 76
-89 9 -16 36 -52 59 -79 42 -46 55 -76 34 -76 -5 0 -10 -7 -10 -15 0 -8 4 -15
10 -15 16 0 80 -61 96 -91 22 -43 18 -82 -12 -110 -24 -23 -32 -24 -180 -27
-144 -3 -155 -5 -169 -25 -13 -19 -22 -77 -11 -77 2 0 21 8 42 17 30 13 66 16
160 15 108 -2 124 0 147 18 40 32 92 50 141 50 62 0 73 -6 94 -54 17 -38 72
-96 92 -96 13 0 20 28 20 78 0 33 6 52 22 69 12 13 18 26 14 30 -4 5 -22 -9
-39 -30 -18 -20 -35 -37 -39 -37 -14 0 -9 45 7 66 19 25 19 34 -3 34 -9 0 -23
-9 -30 -20 -7 -11 -17 -20 -22 -20 -18 0 -11 26 13 48 19 18 35 22 83 22 69 0
173 -18 192 -33 18 -14 -51 -57 -93 -57 -26 -1 -33 -8 -55 -52 -14 -27 -26
-54 -28 -59 -7 -19 33 -8 117 32 73 36 98 42 170 47 l83 5 29 61 c16 33 29 66
29 71 0 18 -61 75 -81 75 -23 0 -25 -22 -4 -40 26 -22 19 -41 -12 -33 -16 4
-40 7 -55 6 -122 -8 -155 -6 -203 16 -66 29 -103 65 -130 126 -13 28 -37 62
-54 78 -33 29 -34 35 -31 155 2 75 -5 85 -34 53 -24 -27 -30 -87 -16 -155 10
-50 20 -66 61 -106 52 -51 56 -68 26 -125 -10 -17 -12 -14 -18 28 -8 54 -32
97 -54 97 -19 0 -19 -3 5 -50 20 -40 27 -100 11 -100 -5 0 -11 13 -14 29 -8
37 -75 90 -130 103 -92 20 -161 96 -212 233 -33 87 -41 95 -56 62 -16 -36 -24
-34 -54 13 -50 79 -18 135 39 67 19 -23 40 -37 54 -37 28 0 28 9 -1 51 -13 19
-36 52 -50 73 -18 25 -27 52 -27 77 0 33 4 39 37 56 20 10 38 23 40 29 2 6 -9
26 -24 45 -22 25 -28 43 -28 79 0 35 -9 61 -38 110 -64 107 -67 183 -16 338
21 63 21 80 -1 67 -21 -13 -48 -88 -61 -169 -12 -75 -13 -78 -27 -58 -16 24
-32 29 -32 10 0 -35 25 -93 64 -150 71 -104 97 -206 57 -228 -11 -5 -30 -10
-43 -10 -13 0 -29 -5 -35 -11 -7 -7 -20 -6 -44 4 -29 12 -42 31 -86 118 -57
114 -79 191 -68 247 8 48 31 82 53 82 24 0 89 55 116 99 13 20 33 64 45 97 13
34 40 83 62 109 36 44 44 64 40 107 -2 21 36 48 69 48 14 0 32 5 40 10 13 9
13 11 0 20 -8 5 -23 10 -32 10 -33 0 -48 12 -48 40 0 15 -9 35 -20 45 -50 45
-61 185 -19 238 l19 25 -31 51 c-25 40 -30 56 -23 72 9 19 12 17 52 -30 24
-28 50 -51 58 -51 22 0 16 34 -11 60 -31 29 -32 40 -2 40 12 0 47 17 79 39 42
29 70 39 111 44 30 3 70 13 88 22 88 46 239 -27 287 -138 15 -34 16 -124 1
-165 -9 -26 -6 -38 17 -84 15 -29 42 -78 62 -108 l35 -55 -19 -34 c-32 -58
-43 -60 -122 -13 -104 62 -132 53 -72 -23 17 -21 30 -39 30 -41 0 -2 -19 6
-42 16 -77 35 -156 21 -184 -31 -19 -37 -18 -39 10 -39 14 0 38 11 54 25 40
34 71 32 149 -10 46 -24 79 -35 109 -35 40 0 43 2 54 35 7 20 23 43 36 52 22
14 26 14 42 0 10 -9 62 -37 117 -62 55 -26 114 -57 130 -69 17 -13 47 -26 68
-29 21 -3 54 -19 75 -35 54 -43 188 -67 362 -66 151 0 208 15 291 77 41 29 42
32 21 35 -13 2 -70 -16 -125 -39 -95 -40 -108 -43 -187 -42 -47 1 -123 10
-170 21 l-85 19 95 47 c167 84 310 168 310 183 0 23 -64 -3 -184 -75 -56 -34
-60 -34 -72 -17 -19 26 -17 61 4 70 44 18 75 23 95 16 17 -7 24 -3 37 23 8 17
34 41 57 54 l42 23 32 -36 c41 -45 50 -44 33 3 -20 55 -17 64 29 97 84 60 87
61 112 29 30 -37 20 -56 -46 -90 -55 -27 -60 -50 -10 -47 20 0 47 14 77 40 26
21 69 55 98 76 58 42 85 74 86 100 0 32 -43 19 -91 -29 l-47 -47 -31 22 c-20
14 -31 31 -31 46 0 13 -4 26 -8 29 -13 8 -64 -22 -107 -64 -90 -86 -281 -190
-559 -305 l-138 -57 -92 45 c-50 25 -114 53 -141 63 l-51 17 1 57 c0 51 -4 64
-40 114 -76 107 -85 127 -70 150 8 13 15 58 16 111 l3 90 -59 48 c-73 60 -165
105 -225 112 -25 2 -70 -2 -101 -10z m361 -722 c0 -18 -25 -16 -40 2 -11 13
-8 15 14 13 14 -1 26 -8 26 -15z m714 -19 c31 -31 20 -53 -41 -80 -77 -34
-140 -41 -182 -20 -26 14 -30 20 -20 32 16 20 56 17 95 -6 35 -23 52 -13 34
19 -15 29 -14 30 33 51 51 24 61 24 81 4z m-1617 -156 c48 -71 92 -81 60 -13
-9 20 -17 40 -17 45 0 14 53 12 72 -2 15 -11 15 -18 4 -50 -7 -20 -25 -57 -41
-83 l-27 -47 -31 33 c-36 40 -46 27 -26 -33 12 -38 12 -41 -11 -58 -14 -10
-35 -20 -47 -23 -20 -4 -23 0 -23 25 0 51 -29 102 -97 166 -51 50 -63 66 -52
73 8 5 58 9 111 9 l97 0 28 -42z m173 -859 c0 -10 -4 -19 -10 -19 -5 0 -10 12
-10 26 0 14 4 23 10 19 6 -3 10 -15 10 -26z m404 -543 c18 -8 41 -24 50 -37
17 -25 22 -69 8 -69 -26 0 -122 90 -122 115 0 9 30 5 64 -9z m-584 -137 c0 -6
-5 -19 -10 -30 -14 -24 -42 -26 -33 -1 13 35 43 58 43 31z"/>
<path d="M12705 4335 c-36 -6 -60 -15 -59 -23 1 -7 2 -21 3 -32 1 -18 8 -20
59 -20 75 0 103 28 69 70 -10 13 -22 14 -72 5z"/>
<path d="M12570 4236 c0 -16 27 -46 41 -46 20 0 22 33 4 46 -24 18 -45 18 -45
0z"/>
<path d="M6354 4225 c-8 -20 4 -35 27 -35 21 0 25 20 7 38 -16 16 -27 15 -34
-3z"/>
<path d="M6200 4210 c0 -11 6 -20 14 -20 21 0 31 21 15 31 -22 14 -29 11 -29
-11z"/>
<path d="M12736 4201 c-9 -13 4 -41 19 -41 12 0 45 31 45 43 0 10 -58 8 -64
-2z"/>
<path d="M12481 4135 c-29 -10 -34 -17 -35 -44 -1 -30 1 -31 39 -31 36 0 42 4
58 36 9 19 17 39 17 44 0 13 -37 11 -79 -5z"/>
<path d="M6480 4046 c0 -29 17 -43 33 -27 8 8 9 16 1 28 -17 27 -34 27 -34 -1z"/>
<path d="M10934 4050 c-22 -9 -37 -34 -27 -44 10 -10 121 -7 128 4 9 14 -32
50 -57 49 -13 0 -32 -4 -44 -9z"/>
<path d="M3251 3793 c-12 -10 -25 -33 -31 -51 -8 -30 -7 -34 16 -42 15 -6 34
-6 49 0 20 8 29 6 45 -10 16 -16 25 -18 40 -10 24 13 26 28 5 36 -9 4 -27 26
-41 50 -28 48 -49 55 -83 27z"/>
<path d="M8695 3698 c4 -18 20 -58 36 -88 36 -68 36 -77 2 -112 -14 -15 -24
-30 -21 -34 12 -11 45 7 67 37 l23 31 -18 65 c-20 74 -51 126 -78 131 -16 3
-17 -1 -11 -30z"/>
<path d="M12470 3720 c0 -5 17 -18 39 -29 25 -13 42 -31 50 -53 26 -69 31 -78
41 -78 14 0 23 45 15 77 -3 14 -21 41 -40 60 -25 25 -42 33 -69 33 -20 0 -36
-4 -36 -10z"/>
<path d="M10784 3679 c-3 -6 -1 -16 5 -22 13 -13 42 0 49 21 5 15 -44 16 -54
1z"/>
<path d="M12432 3647 c-7 -8 -7 -18 -2 -27 13 -21 12 -114 -1 -127 -7 -7 -7
-13 -1 -17 5 -3 17 3 27 14 25 28 35 25 35 -10 0 -40 -47 -86 -138 -133 -97
-51 -192 -73 -395 -93 -94 -8 -174 -18 -176 -20 -2 -2 4 -13 14 -24 21 -23 95
-27 155 -10 19 6 88 17 153 25 126 15 146 23 307 111 146 80 168 112 140 203
-28 93 -46 121 -79 121 -16 0 -33 -6 -39 -13z"/>
<path d="M3590 3617 c0 -21 27 -57 42 -57 15 0 17 35 3 56 -20 31 -45 31 -45
1z"/>
<path d="M8652 3578 c-18 -18 -15 -38 6 -38 21 0 42 18 42 37 0 16 -32 17 -48
1z"/>
<path d="M11420 3500 c0 -6 9 -28 20 -50 36 -70 21 -95 -24 -38 -31 41 -41 32
-22 -18 60 -156 128 -368 145 -451 11 -54 29 -115 38 -134 16 -29 18 -56 15
-196 l-3 -161 36 -83 c24 -56 35 -94 33 -118 -3 -33 -5 -36 -33 -34 l-30 2 0
-79 c0 -62 4 -83 18 -97 12 -12 17 -13 17 -4 0 7 16 48 35 91 44 98 47 163 10
251 -24 56 -25 69 -23 212 l2 152 -47 143 c-49 150 -58 222 -33 257 13 18 15
18 58 2 54 -21 84 -22 92 -2 3 8 15 15 26 15 11 0 20 2 20 5 0 14 -30 62 -49
79 -18 17 -21 17 -27 3 -3 -9 2 -30 12 -46 10 -17 15 -33 12 -36 -12 -12 -74
23 -110 63 -21 23 -41 42 -44 42 -4 0 -4 -13 0 -30 7 -36 -11 -41 -39 -10 -12
13 -21 52 -30 125 -13 106 -32 155 -60 155 -8 0 -15 -5 -15 -10z"/>
<path d="M9306 3428 c9 -18 28 -50 42 -70 21 -32 25 -54 32 -162 8 -137 13
-150 115 -302 25 -37 45 -73 45 -78 0 -6 4 -5 9 3 13 20 -3 74 -37 124 -17 24
-40 67 -51 95 -21 53 -51 205 -51 258 0 44 -70 158 -99 162 -22 4 -22 3 -5
-30z"/>
<path d="M8536 3425 c-2 -7 -18 -16 -35 -20 -39 -8 -46 -19 -25 -39 23 -23 70
-21 77 4 3 12 14 20 25 20 43 0 32 31 -15 42 -13 4 -24 1 -27 -7z"/>
<path d="M8391 3406 c-9 -10 -8 -16 4 -26 19 -16 41 1 32 24 -8 20 -21 20 -36
2z"/>
<path d="M9505 3304 c34 -60 38 -76 50 -199 12 -123 27 -175 49 -175 5 0 6 56
4 128 -6 153 -29 229 -83 280 -54 50 -60 38 -20 -34z"/>
<path d="M9256 3234 c40 -110 47 -126 69 -144 14 -12 16 -11 11 11 -3 13 -8
42 -11 64 -10 62 -70 165 -96 165 -4 0 8 -43 27 -96z"/>
<path d="M8789 3303 c0 -4 -2 -33 -3 -63 -1 -30 -8 -77 -16 -103 -14 -46 -14
-50 5 -63 19 -14 21 -13 33 18 20 48 26 130 13 171 -12 35 -30 58 -32 40z"/>
<path d="M8560 3280 c0 -5 4 -10 9 -10 6 0 13 5 16 10 3 6 -1 10 -9 10 -9 0
-16 -4 -16 -10z"/>
<path d="M8977 3273 c-14 -13 -7 -73 7 -73 18 0 30 33 21 60 -6 20 -16 25 -28
13z"/>
<path d="M9080 3248 c0 -18 -7 -58 -15 -88 -20 -73 -20 -166 0 -173 23 -9 27
6 36 136 5 67 10 129 12 137 1 8 -6 16 -15 18 -14 3 -18 -3 -18 -30z"/>
<path d="M9650 3233 c0 -5 14 -60 31 -123 36 -136 45 -219 30 -280 -5 -24 -8
-47 -5 -50 3 -3 18 9 33 26 44 48 51 146 19 254 -20 69 -108 210 -108 173z"/>
<path d="M4157 3176 c-5 -13 17 -77 60 -179 21 -47 76 -97 108 -97 35 0 31 14
-10 36 -28 15 -41 33 -66 94 -41 101 -71 160 -80 160 -4 0 -9 -6 -12 -14z"/>
<path d="M8313 3103 c-34 -13 3 -73 45 -73 28 0 28 20 1 54 -21 27 -25 28 -46
19z"/>
<path d="M8230 3029 c0 -80 75 -189 130 -189 18 0 57 -7 87 -16 54 -16 56 -16
76 5 l21 21 -36 0 c-27 0 -47 8 -72 31 -33 28 -37 29 -52 15 -8 -9 -20 -16
-26 -16 -19 0 -63 58 -80 106 -9 27 -24 58 -32 69 -14 19 -15 17 -16 -26z"/>
<path d="M9952 3028 c-17 -17 -15 -67 3 -74 21 -8 45 14 45 40 0 21 -17 46
-30 46 -3 0 -11 -5 -18 -12z"/>
<path d="M10155 3019 c-4 -6 -5 -13 -2 -16 7 -7 27 6 27 18 0 12 -17 12 -25
-2z"/>
<path d="M8180 2950 c0 -5 9 -10 21 -10 11 0 17 5 14 10 -3 6 -13 10 -21 10
-8 0 -14 -4 -14 -10z"/>
<path d="M9620 2831 c0 -44 24 -64 34 -28 12 44 7 67 -14 67 -17 0 -20 -7 -20
-39z"/>
<path d="M11231 2727 c-28 -14 -48 -43 -38 -53 4 -4 29 0 55 9 26 9 57 14 68
11 29 -8 42 15 19 33 -23 16 -72 17 -104 0z"/>
<path d="M9376 2689 c-39 -31 -66 -159 -32 -159 18 0 26 22 26 73 0 60 11 72
48 59 49 -17 60 8 13 32 -27 14 -31 14 -55 -5z"/>
<path d="M11071 2682 c-44 -22 -70 -57 -78 -107 l-6 -40 24 16 c13 9 38 38 56
65 18 27 37 54 42 61 25 28 9 30 -38 5z"/>
<path d="M9459 2541 c-34 -34 -37 -66 -9 -81 17 -9 20 -7 26 17 11 54 13 56
43 50 35 -7 43 0 30 24 -15 28 -56 23 -90 -10z"/>
<path d="M4687 2542 c-23 -26 -37 -68 -37 -116 0 -36 -7 -53 -41 -95 -25 -32
-39 -59 -37 -72 3 -22 4 -22 36 6 18 15 42 45 53 66 17 35 59 186 59 217 0 17
-14 15 -33 -6z"/>
</g>
</svg>
