
<svg version="1.0" xmlns="http://www.w3.org/2000/svg"
 width="862.000000pt" height="1280.000000pt" viewBox="0 0 862.000000 1280.000000"
 preserveAspectRatio="xMidYMid meet">
<metadata>
Created by potrace 1.15, written by Peter Selinger 2001-2017
</metadata>
<g transform="translate(0.000000,1280.000000) scale(0.100000,-0.100000)"
fill="#000000" stroke="none">
<path d="M5593 12793 c-7 -2 -40 -42 -73 -88 -61 -85 -74 -95 -116 -95 -13 0
-71 -18 -129 -40 -58 -22 -112 -40 -120 -40 -8 0 -22 -15 -31 -32 -38 -73 -54
-88 -253 -243 -73 -56 -129 -133 -152 -207 -13 -40 -23 -116 -29 -218 -6 -85
-15 -179 -21 -208 -6 -30 -8 -65 -4 -80 3 -14 41 -62 84 -106 43 -45 84 -91
90 -104 14 -26 17 -94 6 -112 -5 -8 -2 -10 11 -7 11 3 69 18 129 32 134 33
208 69 262 127 59 65 81 133 93 290 14 182 27 217 114 304 170 170 374 208
583 108 73 -35 189 -121 252 -187 19 -20 51 -76 71 -124 21 -48 56 -132 79
-186 50 -116 73 -204 96 -355 34 -234 36 -565 4 -810 -29 -226 -104 -532 -194
-792 -101 -293 -178 -473 -412 -955 l-164 -340 -508 -505 c-279 -278 -562
-567 -627 -643 -106 -123 -120 -144 -127 -188 -7 -37 -16 -54 -38 -71 -83 -64
-118 -103 -197 -223 -47 -71 -101 -155 -121 -185 -20 -30 -87 -113 -149 -185
-137 -157 -235 -286 -417 -550 -216 -313 -346 -477 -471 -595 -73 -69 -113
-94 -186 -115 -117 -33 -252 -159 -695 -645 -223 -245 -407 -394 -612 -497
l-115 -57 -65 71 c-72 78 -95 93 -139 93 -48 0 -77 -42 -106 -152 -10 -37 -24
-72 -31 -78 -13 -11 -66 25 -219 144 -45 35 -81 56 -90 53 -8 -3 -23 -21 -33
-39 -15 -28 -18 -57 -18 -181 l0 -149 -38 -13 c-22 -7 -69 -33 -106 -58 -98
-65 -126 -78 -194 -85 l-62 -7 -82 -143 c-45 -79 -99 -166 -120 -193 -33 -44
-133 -130 -162 -141 -13 -4 -41 -175 -41 -245 0 -47 3 -54 38 -81 53 -42 137
-82 297 -142 77 -28 169 -66 205 -83 36 -18 68 -33 71 -35 3 -1 9 40 12 91 4
67 11 106 26 135 26 50 53 68 71 47 17 -21 43 -19 72 5 34 26 79 43 90 32 12
-12 -19 -237 -40 -285 -21 -47 -70 -94 -108 -103 -28 -7 -29 -15 -7 -57 9 -18
44 -99 78 -182 l61 -150 50 3 c32 1 74 14 120 37 39 19 76 35 82 35 6 0 16 19
23 42 32 122 101 203 299 353 74 56 144 112 154 124 11 11 30 21 43 21 72 0
117 23 183 91 61 62 67 66 78 49 9 -16 26 -20 89 -22 65 -3 78 -6 81 -20 2
-11 -3 -18 -13 -18 -28 0 -63 -48 -70 -98 -3 -27 1 -91 10 -152 33 -216 36
-191 -33 -265 -99 -105 -190 -228 -412 -559 -115 -171 -234 -342 -265 -381
-155 -194 -299 -326 -463 -424 -81 -48 -90 -51 -155 -51 -66 0 -70 -1 -124
-45 -30 -25 -61 -48 -68 -53 -6 -4 -15 -33 -18 -65 -7 -72 -32 -116 -79 -142
-44 -23 -53 -17 -51 35 2 53 22 87 82 143 49 46 50 47 25 53 -66 17 -155 -67
-205 -191 -33 -83 -35 -239 -3 -281 26 -35 62 -61 95 -69 36 -9 42 11 24 80
-19 72 -19 72 10 91 22 14 30 15 49 4 32 -17 43 -44 56 -141 12 -86 23 -119
41 -119 21 0 58 49 68 91 27 109 74 153 84 78 3 -23 10 -46 16 -52 21 -21 374
200 658 411 149 111 154 114 193 107 89 -15 154 38 210 172 31 77 81 153 99
153 5 0 11 -35 14 -77 6 -90 20 -126 54 -142 38 -17 50 -13 67 23 20 42 20 93
1 171 -15 63 -19 135 -9 172 5 18 11 21 35 16 60 -12 95 5 166 77 52 54 74 70
95 70 15 0 28 -3 28 -6 0 -3 -16 -26 -35 -51 -20 -26 -70 -114 -112 -197 -41
-83 -84 -163 -95 -178 l-19 -28 28 0 c45 0 62 -19 69 -75 9 -82 12 -91 39
-103 42 -19 51 -15 68 41 24 77 68 139 122 175 59 39 85 41 85 8 0 -28 40 -90
62 -94 30 -6 196 282 244 423 15 45 29 115 33 160 5 62 9 80 21 80 35 1 62 19
86 61 l26 44 59 0 c34 0 59 4 59 10 0 6 50 62 110 125 106 109 149 173 150
221 0 15 22 34 84 72 177 108 323 226 671 542 249 226 406 361 488 420 29 20
50 44 53 59 3 14 15 55 26 91 12 35 20 80 20 99 -1 33 -25 81 -40 81 -4 0 -7
-37 -7 -83 0 -88 -18 -137 -55 -157 -22 -12 -65 5 -89 34 -8 9 -17 16 -21 16
-11 0 -75 -127 -95 -190 -29 -89 -39 -103 -137 -182 -51 -41 -176 -149 -278
-239 -313 -278 -505 -422 -692 -523 -72 -39 -91 -55 -114 -94 -15 -26 -108
-126 -205 -222 -216 -212 -231 -238 -248 -418 -11 -118 -16 -136 -49 -166 -23
-20 -84 -37 -100 -27 -5 3 -17 24 -26 45 -15 37 -15 43 4 115 39 140 93 225
290 451 63 72 128 152 144 176 19 29 36 44 50 44 45 0 117 64 101 90 -11 18
-30 11 -107 -40 -98 -64 -206 -181 -288 -309 -36 -56 -104 -161 -151 -234 -81
-125 -85 -134 -81 -179 6 -72 -22 -153 -71 -204 -35 -36 -52 -45 -104 -55 -50
-10 -64 -10 -77 0 -40 34 4 139 113 271 39 47 100 121 136 165 78 94 121 179
131 255 11 88 61 160 263 374 72 76 131 143 131 147 0 5 7 9 16 9 12 0 15 -6
10 -25 -6 -22 -3 -25 21 -25 63 0 161 60 325 197 59 50 135 105 169 122 33 18
63 40 66 49 35 109 115 213 226 293 94 67 98 72 62 63 -92 -22 -160 -80 -295
-254 -107 -138 -140 -174 -185 -201 -33 -21 -86 -25 -115 -9 -16 9 -22 5 -36
-22 -41 -78 -111 -142 -187 -169 -47 -17 -57 -6 -57 63 0 41 5 52 38 87 37 39
77 60 377 200 5 2 -5 -12 -23 -33 -31 -36 -34 -56 -8 -56 7 0 37 39 66 87 51
84 197 243 265 291 l30 21 -31 33 c-52 54 -132 185 -196 318 -89 187 -167 340
-184 364 -20 26 -20 27 41 -125 27 -68 102 -230 167 -359 l118 -235 -27 -38
c-40 -58 -165 -158 -180 -144 -2 3 25 36 60 74 35 37 72 83 81 101 l17 32 -29
0 c-29 0 -53 -20 -87 -75 l-19 -30 -8 30 c-5 17 -6 41 -4 55 4 23 -8 36 -95
104 -123 97 -316 297 -389 402 -30 43 -111 189 -180 325 -70 136 -149 280
-176 320 -87 131 -194 227 -307 274 l-38 16 15 -23 c9 -13 70 -72 136 -133
137 -124 246 -246 286 -318 21 -39 27 -64 28 -121 1 -92 20 -129 137 -276 103
-129 139 -195 139 -257 0 -24 -2 -43 -5 -43 -3 0 -22 11 -43 24 -62 39 -142
77 -142 67 0 -5 9 -39 21 -76 11 -36 19 -78 17 -93 -3 -27 -4 -27 -104 -34
-94 -7 -159 -21 -460 -102 -125 -34 -246 -49 -326 -41 -64 6 -68 5 -68 -14 0
-12 -21 -43 -48 -70 -79 -82 -159 -90 -201 -20 -18 29 -20 30 -30 12 -7 -14
-6 -33 4 -66 l14 -47 -32 -16 c-59 -31 -171 -112 -286 -207 -63 -52 -127 -102
-142 -111 l-29 -17 0 98 c-1 169 -34 302 -99 396 l-32 47 -97 0 c-53 0 -137
-7 -187 -15 -167 -27 -200 -19 -155 38 26 33 64 44 182 51 54 4 110 11 124 16
l26 10 -26 21 c-28 22 -34 54 -13 62 7 3 32 -2 56 -10 33 -11 50 -12 68 -4 28
13 29 36 6 102 -20 56 -11 76 30 65 20 -5 31 -21 52 -76 16 -41 33 -70 41 -70
22 0 50 55 74 144 12 45 25 87 29 94 4 7 12 -21 19 -61 12 -76 29 -127 43
-127 18 0 19 46 3 115 -16 70 -16 75 0 100 24 37 63 31 93 -15 48 -76 49 -77
69 -58 16 15 14 19 -26 67 -23 28 -89 93 -146 146 -102 95 -104 97 -90 123 19
39 24 64 36 191 7 73 18 131 32 163 24 57 32 57 126 10 85 -43 156 -105 206
-181 88 -132 111 -241 81 -384 -21 -99 -15 -144 21 -178 l25 -23 44 23 c24 13
55 40 69 60 36 51 94 106 103 97 4 -4 12 -26 18 -49 8 -33 15 -43 34 -45 13
-2 27 2 32 9 4 7 29 15 56 18 46 6 48 7 45 35 -2 16 -14 45 -28 65 -49 73 -23
100 42 42 38 -33 228 -141 248 -141 17 0 3 62 -20 90 -39 46 -24 46 24 0 32
-31 49 -40 77 -40 33 0 35 2 35 35 0 81 54 123 140 109 l43 -7 -7 44 c-22 135
-86 254 -243 449 -136 170 -174 222 -207 288 -22 43 -24 52 -11 52 9 0 23 16
31 35 19 46 50 58 135 49 44 -4 80 -2 105 6 l38 13 73 -79 c97 -105 186 -231
235 -332 22 -46 38 -85 36 -87 -13 -13 -87 71 -168 190 -121 177 -185 231
-298 250 -42 7 -43 6 -33 -13 18 -33 58 -59 124 -82 34 -11 67 -24 72 -28 6
-4 24 -36 42 -72 17 -36 71 -112 120 -170 50 -59 99 -129 112 -159 25 -60 42
-153 34 -193 -4 -20 0 -28 15 -32 12 -4 29 -28 42 -62 21 -50 43 -74 69 -74
17 0 2 58 -40 150 -46 104 -54 133 -41 157 9 16 13 11 32 -31 11 -28 44 -124
71 -215 51 -168 110 -305 149 -351 l21 -25 -7 35 c-3 19 -21 89 -39 155 -93
340 -250 674 -435 928 -62 85 -219 265 -232 266 -5 1 -8 -13 -8 -29 0 -23 -6
-33 -25 -40 -35 -13 -57 -3 -49 24 19 60 59 106 93 106 23 0 148 -107 208
-178 94 -113 190 -268 294 -477 89 -178 100 -195 96 -154 -2 25 -23 87 -46
136 -37 82 -54 164 -33 163 13 -1 78 -92 127 -180 27 -47 66 -114 86 -150 68
-119 83 -125 38 -15 -79 193 -142 306 -221 392 -21 24 -38 51 -38 60 0 53 -74
168 -203 318 -38 44 -82 102 -98 130 -26 46 -48 129 -37 141 10 9 147 -97 214
-167 81 -85 171 -216 303 -444 52 -88 118 -196 147 -240 l54 -79 -25 -26 c-29
-30 -31 -40 -10 -40 27 0 65 -32 84 -69 11 -20 28 -82 39 -139 16 -78 31 -121
63 -180 76 -137 113 -215 141 -297 29 -85 72 -145 91 -126 7 7 0 30 -23 76
-31 61 -32 67 -17 82 16 16 19 16 44 -3 16 -12 44 -45 64 -75 38 -56 76 -96
84 -88 10 10 -58 135 -147 272 -118 181 -172 289 -188 372 -7 36 -10 68 -7 71
16 16 62 -37 98 -115 22 -47 61 -131 87 -186 26 -55 63 -128 83 -163 37 -65
118 -171 132 -172 14 0 7 72 -12 108 -11 20 -53 74 -94 119 -55 60 -79 95 -92
135 -10 29 -46 107 -80 173 -68 133 -89 213 -76 283 9 46 7 48 -39 54 -20 2
-26 9 -28 36 -2 17 1 32 6 32 5 0 14 11 20 25 20 44 46 32 66 -32 58 -187 177
-441 269 -579 56 -83 143 -184 206 -240 l45 -39 -28 50 c-14 28 -83 129 -151
225 -69 96 -141 204 -160 241 -33 63 -72 185 -62 195 5 5 177 -224 378 -504
93 -130 125 -167 127 -151 2 11 -11 50 -29 85 l-33 64 18 34 18 35 -47 78
c-61 100 -96 144 -133 165 -29 17 -29 17 -40 -7 -19 -41 -45 -31 -74 28 -14
30 -57 94 -94 143 -37 49 -91 120 -120 157 -28 38 -64 94 -79 124 -19 40 -29
52 -35 42 -7 -10 -14 -7 -30 14 -12 15 -28 27 -36 27 -13 0 -14 -10 -9 -53 6
-43 4 -57 -9 -70 -49 -49 -65 57 -21 143 14 27 25 54 25 61 0 12 -174 297
-288 469 -100 153 -207 288 -218 277 -9 -8 16 -49 57 -94 39 -43 48 -66 29
-78 -26 -16 -190 138 -190 179 0 2 29 20 64 40 95 53 156 103 308 254 l137
136 56 -38 c67 -47 198 -175 260 -256 94 -122 195 -304 266 -478 22 -55 36
-79 43 -72 21 21 38 8 60 -43 40 -89 82 -108 47 -20 -24 62 -66 133 -146 248
-79 114 -114 181 -140 270 -22 77 -7 61 -251 277 -60 54 -121 113 -137 132
l-27 35 37 -15 c21 -9 70 -32 108 -52 94 -49 250 -204 332 -329 61 -93 83
-137 276 -533 89 -184 241 -440 253 -428 13 13 -82 211 -220 461 -107 194
-164 317 -204 445 l-27 83 -145 134 c-140 128 -274 246 -334 292 l-28 23 68
117 c208 361 295 484 439 621 53 51 100 92 106 92 19 0 115 -53 189 -105 73
-52 265 -213 385 -323 85 -78 150 -154 287 -337 132 -175 257 -325 270 -325 5
0 6 5 2 11 -3 6 9 26 27 45 39 40 35 46 -41 71 -47 15 -55 22 -55 43 0 28 13
29 121 15 59 -8 69 0 59 45 -7 30 -36 65 -108 128 -21 19 -36 39 -34 45 6 18
76 13 139 -11 32 -12 76 -22 98 -22 l41 0 -23 41 c-13 22 -62 78 -111 124
l-88 83 34 36 c19 20 43 36 53 36 11 0 48 -31 84 -69 57 -61 114 -100 127 -87
9 9 -30 83 -60 114 -18 19 -72 61 -120 94 -86 59 -137 120 -137 161 0 22 41
48 87 54 36 5 41 2 87 -48 112 -123 142 -152 178 -170 43 -22 58 -18 58 14 0
32 -8 40 -80 84 -49 30 -84 63 -142 135 -75 93 -79 96 -197 158 -132 68 -161
94 -161 147 0 41 1 41 97 -13 80 -45 151 -101 315 -254 73 -67 164 -146 203
-175 70 -53 135 -91 135 -79 0 3 -23 39 -51 79 -73 107 -209 232 -346 321
-271 177 -341 226 -393 280 -61 63 -61 63 70 13 123 -47 260 -122 540 -297
146 -91 267 -167 270 -169 2 -2 -4 -34 -13 -71 -19 -72 -22 -136 -8 -130 5 2
28 27 51 56 23 29 47 52 53 50 7 -3 20 -20 29 -39 l18 -34 0 36 c0 20 7 56 15
79 8 23 15 58 15 76 0 22 5 34 14 34 24 0 64 40 116 113 55 80 99 115 156 124
l38 6 -35 -49 c-19 -27 -51 -59 -70 -72 -24 -17 -37 -36 -45 -65 -32 -120 -77
-199 -226 -400 -60 -81 -129 -185 -154 -231 -44 -83 -84 -211 -84 -271 0 -21
-14 -52 -41 -91 -23 -32 -98 -149 -167 -259 -189 -304 -295 -436 -427 -530
-70 -51 -164 -100 -173 -91 -3 4 0 22 7 42 17 47 7 54 -29 19 -48 -46 -77
-117 -124 -305 -46 -186 -75 -257 -125 -304 -39 -37 -39 -59 -1 -86 18 -13 30
-30 30 -44 0 -13 -22 -70 -49 -127 -89 -188 -139 -357 -112 -374 14 -8 21 9
22 52 1 23 14 60 33 93 56 97 123 250 201 460 42 113 97 248 121 300 l45 94
268 266 c268 265 383 397 494 565 105 159 213 398 247 544 10 41 25 67 66 113
57 64 124 187 165 302 21 59 31 74 79 111 65 51 168 155 314 320 153 171 281
275 394 321 33 13 66 45 159 157 189 227 339 368 476 446 40 23 58 40 66 64 7
17 45 91 87 163 41 72 84 154 94 183 33 84 44 229 32 384 -14 165 -30 212
-124 355 -39 59 -84 134 -100 167 l-28 60 32 9 c390 105 575 248 594 458 7 66
-15 182 -39 205 -7 6 -51 28 -99 47 -96 40 -177 47 -226 22 -15 -8 -56 -44
-92 -81 -71 -72 -105 -95 -144 -95 l-26 0 26 73 c15 39 46 111 70 158 78 157
135 291 156 368 20 75 22 78 66 102 43 22 149 120 232 214 20 22 63 55 97 74
108 59 215 181 259 296 39 101 14 305 -36 305 -10 0 -22 5 -25 10 -9 15 -35
12 -131 -16 -140 -40 -244 -95 -327 -173 -45 -42 -96 -79 -137 -98 -125 -58
-180 -109 -419 -391 -34 -40 -88 -94 -120 -120 -53 -42 -61 -54 -80 -117 -12
-38 -42 -167 -66 -285 -25 -118 -57 -262 -71 -320 l-26 -105 -138 -135 c-103
-101 -156 -161 -208 -241 -65 -98 -193 -258 -230 -286 -15 -13 -72 -18 -72 -8
0 3 20 45 44 93 158 316 316 803 405 1247 96 479 144 836 145 1085 1 184 1
185 -26 231 -36 60 -45 102 -68 309 -22 200 -35 252 -85 334 -65 108 -209 299
-280 371 -70 72 -170 137 -333 219 -65 32 -79 36 -140 34 -67 -3 -68 -3 -202
72 -74 41 -164 85 -200 97 -60 21 -147 29 -177 16z m373 -295 c-8 -41 -32 -78
-51 -78 -11 0 -13 8 -8 33 11 59 22 77 44 77 19 0 21 -4 15 -32z m-260 -142
c10 -43 -35 -95 -66 -76 -11 7 -12 14 -2 35 7 14 12 36 12 49 0 12 3 26 6 29
12 11 44 -13 50 -37z m-276 -94 c12 -46 13 -99 1 -106 -14 -9 -62 35 -77 69
-7 18 -16 63 -19 101 l-6 69 45 -48 c25 -27 50 -65 56 -85z m430 17 c0 -24 -4
-38 -10 -34 -5 3 -10 24 -10 46 0 24 4 38 10 34 6 -3 10 -24 10 -46z m694 -19
c13 -12 -48 -103 -97 -145 -42 -36 -103 -60 -174 -68 -49 -6 -50 -4 -25 38 13
21 47 44 113 76 91 45 121 67 118 85 -5 29 2 36 29 29 15 -3 31 -10 36 -15z
m-304 -51 c0 -27 -62 -89 -89 -89 -26 0 -28 25 -3 45 16 14 84 62 90 64 1 1 2
-8 2 -20z m178 -211 c-2 -15 -13 -24 -37 -30 -42 -11 -47 -6 -26 26 23 34 68
37 63 4z m336 1 c16 -15 -42 -66 -123 -107 -90 -46 -190 -87 -197 -80 -2 3 32
40 77 82 112 108 202 146 243 105z m-34 -179 c-12 -16 -40 -41 -63 -54 -51
-29 -165 -71 -173 -63 -9 9 25 59 58 86 36 29 120 59 166 60 l33 1 -21 -30z
m7 -90 c-50 -72 -139 -140 -182 -140 -37 0 -1 81 48 107 24 12 124 49 145 52
2 1 -3 -8 -11 -19z m171 -96 c3 -47 1 -51 -25 -64 -118 -55 -213 -76 -213 -47
0 25 29 54 72 71 105 43 130 58 135 77 10 36 28 14 31 -37z m-70 -161 c-13
-14 -60 -50 -105 -79 -46 -30 -83 -58 -83 -63 0 -5 12 -12 27 -16 l26 -6 -38
-37 -37 -36 -19 23 c-26 32 -27 138 -1 149 9 4 47 24 84 45 61 35 142 60 161
49 5 -2 -2 -16 -15 -29z m15 -170 c-11 -33 -55 -71 -105 -93 -27 -12 -54 -20
-61 -17 -20 6 73 95 116 111 55 19 57 19 50 -1z m-142 -303 c-14 -28 -34 -53
-44 -56 -24 -8 -26 -5 -15 34 8 28 56 72 79 72 4 0 -5 -23 -20 -50z m260 22
c-26 -38 -86 -78 -158 -108 -73 -30 -87 -31 -73 -4 17 33 77 72 163 106 45 19
83 34 85 34 2 0 -6 -13 -17 -28z m-21 -292 c0 -24 -61 -67 -108 -76 -61 -12
-27 34 41 56 21 6 41 18 44 26 8 21 23 17 23 -6z m1513 -59 c-3 -61 -67 -122
-151 -143 l-45 -11 24 -18 c36 -27 25 -39 -179 -204 -35 -27 -71 -63 -82 -80
l-20 -30 0 36 c0 44 44 98 147 179 75 59 77 70 15 70 -21 0 -45 -19 -102 -79
-81 -85 -131 -121 -169 -121 -20 0 -22 -3 -13 -12 34 -34 -1 -95 -76 -132 -18
-9 -30 -21 -27 -26 10 -16 30 -5 134 74 27 21 2 -46 -37 -96 -38 -51 -127
-122 -179 -144 -18 -8 -33 -18 -33 -24 0 -20 21 -20 59 0 52 26 75 18 67 -23
-13 -64 -65 -96 -165 -99 -39 -2 -71 -7 -71 -11 0 -16 46 -24 112 -19 59 4 68
3 68 -12 0 -10 -13 -30 -28 -46 -35 -35 -103 -50 -222 -50 -89 0 -104 -6 -75
-30 11 -9 34 -11 79 -6 74 7 119 -5 114 -31 -5 -25 -46 -43 -103 -43 -39 -1
-46 -3 -32 -11 43 -25 3 -68 -66 -70 l-32 -1 29 -13 c35 -15 54 -10 156 39 41
20 80 36 87 36 38 0 -9 -114 -64 -156 -42 -32 -147 -70 -221 -80 -52 -7 -52
-6 -44 17 10 27 46 49 80 49 13 0 20 4 17 10 -11 18 -52 10 -128 -26 -102 -48
-110 -45 -86 33 24 76 71 123 125 123 l36 0 -31 26 c-28 23 -31 32 -31 79 0
30 9 91 20 137 11 46 20 95 20 111 0 21 5 27 20 27 26 0 150 66 167 89 7 9 15
31 19 49 5 24 15 36 38 47 44 20 106 81 119 118 32 94 91 153 272 272 77 51
173 119 213 152 101 83 164 113 227 110 l50 -2 -2 -34z m-1603 -101 c-37 -29
-86 -51 -128 -57 l-37 -5 25 22 c36 30 100 59 135 59 l30 1 -25 -20z m1026
-53 c-3 -17 -18 -45 -32 -64 -22 -30 -131 -110 -193 -142 l-23 -13 23 40 c30
49 68 91 148 165 66 60 87 64 77 14z m-942 -8 c-23 -26 -71 -50 -169 -88 -40
-16 -88 -39 -104 -51 -31 -21 -31 -21 -31 -1 0 34 56 87 123 115 59 25 187 57
196 50 2 -2 -4 -13 -15 -25z m-64 -117 c0 -20 -62 -63 -147 -104 -88 -41 -93
-43 -93 -23 0 38 49 72 160 112 72 25 80 27 80 15z m40 -81 c0 -63 -57 -97
-244 -146 -54 -14 -100 -24 -103 -22 -11 12 72 60 156 91 90 34 171 80 171 97
0 5 5 9 10 9 6 0 10 -13 10 -29z m-56 -152 c-10 -11 -66 -43 -123 -70 -109
-52 -155 -82 -144 -93 15 -15 53 -3 122 39 80 48 121 61 146 47 14 -7 11 -13
-17 -41 -58 -57 -220 -121 -305 -121 -39 0 -43 18 -18 78 20 47 50 79 100 105
41 21 247 87 254 81 2 -2 -4 -13 -15 -25z m649 -66 c-100 -149 -123 -169 -123
-113 0 39 39 117 77 152 24 23 85 56 105 58 4 0 -23 -44 -59 -97z m-697 -165
c-27 -39 -91 -73 -195 -107 -56 -18 -104 -31 -107 -28 -3 2 20 27 51 55 64 59
120 81 258 101 5 0 1 -9 -7 -21z m-3 -147 c-29 -39 -77 -58 -188 -76 -55 -9
-112 -22 -127 -30 -39 -19 -35 -3 7 34 52 46 127 80 229 106 79 20 91 21 94 8
2 -9 -5 -27 -15 -42z m-18 -101 c7 -11 -53 -38 -203 -90 -73 -25 -129 -49
-126 -53 15 -15 77 -6 155 23 90 33 179 49 179 32 0 -16 -70 -73 -114 -92 -23
-9 -84 -29 -136 -44 -52 -14 -106 -31 -119 -37 -55 -23 -67 40 -24 137 l26 61
42 -5 c33 -3 57 3 121 33 43 21 92 40 109 44 34 8 83 3 90 -9z m1245 -210 c11
-11 22 -32 26 -47 29 -132 43 -153 103 -153 36 0 37 -6 15 -79 -20 -70 -90
-142 -160 -164 -73 -25 -175 -30 -304 -18 -63 7 -155 14 -205 17 -89 5 -90 5
-60 -12 17 -10 63 -26 104 -36 78 -20 131 -43 131 -56 0 -5 -12 -20 -27 -35
-29 -27 -92 -46 -152 -47 -28 0 -32 3 -26 18 4 9 10 27 13 40 4 21 2 22 -35
16 -24 -4 -70 2 -127 15 -48 12 -108 21 -134 21 l-46 0 124 65 c269 141 353
174 455 177 44 1 65 6 65 14 0 27 -32 42 -100 49 -70 7 -107 25 -51 25 44 0
140 33 190 64 45 29 141 122 141 138 0 16 40 8 60 -12z m-1320 -21 c0 -42 -39
-61 -150 -74 -68 -7 -90 -19 -72 -37 8 -8 41 -11 102 -10 96 3 111 -6 72 -41
-27 -25 -66 -35 -175 -47 -98 -10 -142 -25 -166 -54 -12 -14 -10 -16 10 -16
13 0 67 9 119 20 198 41 270 13 128 -50 -48 -21 -218 -49 -300 -50 l-47 0 39
113 c68 194 51 174 144 180 55 4 113 17 181 41 114 40 115 40 115 25z m412
-299 c-96 -99 -145 -140 -169 -140 -13 0 97 148 139 187 22 21 88 51 115 52 6
1 -32 -44 -85 -99z m351 69 c-13 -13 -47 -26 -93 -35 -40 -7 -81 -21 -91 -30
-18 -16 -19 -16 -19 3 0 11 11 26 25 33 29 15 188 59 194 53 3 -2 -4 -13 -16
-24z m-249 -89 c32 -12 33 -34 4 -54 -24 -17 -88 -22 -88 -7 0 24 21 60 37 64
10 3 19 5 20 6 1 0 13 -3 27 -9z m-629 -59 c-24 -23 -94 -51 -159 -65 -164
-36 -256 -52 -256 -46 0 20 45 60 83 74 23 9 100 20 171 26 71 6 132 12 134
15 3 3 12 5 21 5 9 0 11 -3 6 -9z m-45 -118 c0 -15 -12 -65 -27 -110 l-28 -83
-37 0 c-21 0 -95 -11 -166 -25 -132 -26 -226 -34 -238 -22 -11 10 26 46 70 69
21 11 89 31 151 44 140 29 175 42 155 54 -25 16 -63 11 -165 -20 -136 -42
-193 -39 -142 7 57 53 139 74 420 112 4 1 7 -11 7 -26z m545 -33 c44 -10 135
-30 202 -44 153 -33 190 -49 211 -88 28 -51 74 -99 127 -133 46 -30 55 -43
108 -152 70 -143 87 -223 69 -310 -15 -71 -22 -79 -59 -60 -81 42 -335 113
-543 151 -135 25 -484 76 -489 71 -12 -13 102 -47 219 -66 74 -11 143 -24 154
-29 34 -12 -36 -23 -103 -16 -45 6 -250 43 -334 60 -31 7 -6 -15 42 -36 73
-31 144 -47 313 -68 87 -11 166 -23 175 -27 10 -4 37 -23 61 -44 24 -20 91
-58 150 -84 59 -26 135 -62 170 -80 51 -27 62 -30 62 -16 0 45 -62 87 -203
138 -91 32 -167 70 -167 83 0 16 46 30 95 30 56 0 148 -29 282 -89 59 -26 124
-53 144 -60 l36 -12 -12 -53 c-28 -118 -73 -219 -147 -329 -23 -34 -143 -165
-268 -292 -124 -126 -249 -263 -277 -303 -45 -64 -63 -80 -155 -136 -56 -34
-186 -117 -288 -183 -102 -66 -223 -141 -270 -166 l-85 -46 -65 24 c-36 13
-110 44 -165 70 -55 26 -111 52 -125 57 l-25 10 25 10 c33 13 101 4 239 -33
132 -35 149 -30 104 28 -17 21 -35 47 -41 59 -7 14 -29 25 -67 33 -143 32
-271 81 -625 238 -318 142 -438 180 -718 229 l-22 4 24 48 c27 52 98 124 194
197 70 52 117 110 127 156 6 28 9 29 43 23 21 -4 99 -29 175 -55 126 -45 148
-49 241 -51 113 -3 149 -17 160 -64 4 -14 5 -28 2 -31 -2 -2 -33 5 -69 16
-135 41 -333 63 -472 52 l-80 -7 43 -12 c23 -7 42 -17 42 -22 0 -6 30 -10 68
-10 83 0 222 -16 322 -36 119 -25 267 -78 525 -189 132 -57 269 -113 305 -126
36 -12 67 -24 69 -26 11 -8 -16 -18 -82 -28 -74 -11 -79 -16 -62 -57 9 -22
-43 -3 -325 117 -441 189 -657 258 -865 280 -33 3 -80 8 -105 11 -71 9 -43 -3
91 -40 229 -64 451 -146 919 -341 314 -131 608 -241 618 -230 3 2 -1 18 -8 34
-14 35 -60 55 -157 70 -69 11 -119 31 -116 46 3 17 43 23 156 24 73 1 119 6
145 17 l37 15 -30 25 c-82 68 -261 155 -485 235 l-95 34 58 3 c96 5 202 -29
407 -129 177 -88 293 -139 313 -139 5 0 6 19 3 45 -7 43 -6 46 21 56 l28 10
-36 32 c-19 18 -50 40 -68 49 -34 18 -34 38 -1 38 11 0 54 -14 96 -30 42 -17
96 -33 120 -37 37 -5 44 -3 44 11 0 10 -18 35 -40 57 -22 22 -40 45 -40 52 0
8 -25 12 -83 13 -104 1 -147 15 -367 119 -195 93 -256 112 -380 122 -66 5 -92
11 -115 29 -60 45 -133 73 -303 114 -177 43 -210 62 -119 68 26 2 47 6 47 10
0 16 -17 31 -45 42 -32 12 -245 10 -245 -3 0 -4 18 -27 40 -51 49 -53 105 -78
247 -111 251 -59 310 -80 364 -131 15 -14 37 -24 55 -24 16 0 63 -7 104 -16
41 -8 86 -13 100 -11 16 4 39 -5 69 -26 59 -40 124 -64 200 -73 63 -7 63 -7
110 -68 25 -33 63 -80 85 -103 21 -24 36 -43 33 -43 -15 0 -272 89 -487 168
-559 207 -847 294 -1082 328 -27 3 -48 11 -48 16 0 5 19 37 42 71 93 136 201
206 334 215 83 5 114 -10 114 -54 0 -43 9 -53 44 -47 51 8 152 -23 245 -77 99
-56 139 -67 272 -74 117 -6 142 -15 199 -71 54 -53 84 -65 158 -65 70 0 142
-32 256 -115 44 -32 108 -73 142 -92 61 -33 160 -58 190 -46 24 9 13 46 -16
53 -18 4 -25 13 -25 30 0 32 36 50 103 50 28 0 52 3 52 8 0 14 -52 86 -94 130
-52 56 -143 121 -226 162 -53 27 -228 100 -532 223 -32 13 -34 21 -12 72 8 20
13 39 11 41 -2 3 -26 0 -53 -6 -63 -15 -127 -6 -250 31 -106 33 -294 53 -280
31 4 -6 26 -16 49 -22 23 -6 80 -23 127 -37 l85 -27 -45 -9 c-63 -12 -196 -2
-325 24 -60 12 -111 23 -113 24 -1 1 16 35 39 76 23 41 64 117 92 169 28 52
52 97 54 99 1 2 12 -4 23 -14 34 -31 21 -85 -22 -85 -34 0 -18 -20 51 -65 38
-25 78 -56 89 -70 23 -28 58 -32 141 -14 38 8 60 8 86 -1 34 -11 36 -11 95 43
71 64 210 136 325 168 65 19 106 23 217 24 161 0 179 -7 127 -54 l-33 -31 67
0 c85 0 175 -18 347 -71 132 -40 259 -59 297 -45 14 6 8 11 -27 27 -73 33
-174 57 -352 84 -92 14 -171 25 -176 25 -6 0 -23 28 -40 63 -19 39 -60 95
-112 151 -92 100 -130 168 -130 237 0 50 9 59 55 59 14 0 30 7 37 15 7 8 20
12 28 9 8 -3 51 -14 95 -24z m-355 -127 c0 -24 -10 -38 -38 -52 -37 -19 -44
-3 -14 35 29 37 52 44 52 17z m141 -71 c36 -52 41 -69 29 -113 -13 -49 -41
-52 -95 -9 -42 34 -51 32 -60 -10 -8 -38 -37 -54 -82 -45 -28 5 -33 10 -28 25
6 18 2 19 -27 14 -32 -5 -31 -3 37 60 67 63 152 116 184 116 9 0 28 -17 42
-38z m-425 -65 c-19 -64 -64 -111 -123 -127 -42 -10 -43 -12 -43 -52 0 -36 -6
-47 -45 -84 -48 -46 -91 -61 -152 -51 -47 8 -50 13 -24 41 15 16 18 25 10 28
-19 6 17 36 59 48 20 5 55 10 77 10 l40 1 -25 21 c-22 18 -33 20 -95 14 -38
-3 -87 -9 -107 -12 -45 -8 -51 7 -12 32 16 11 54 19 105 22 43 3 79 8 79 12 0
4 -9 15 -20 25 -20 18 -24 18 -93 2 -78 -19 -117 -22 -117 -9 0 21 35 51 87
75 40 18 103 32 203 46 80 11 159 24 175 29 38 11 41 -1 21 -71z m-376 -617
c173 -32 176 -32 237 -16 101 27 168 4 560 -189 213 -105 260 -132 306 -178
34 -33 57 -65 62 -86 4 -18 5 -34 2 -37 -7 -8 -154 59 -402 184 -278 140 -421
200 -565 236 -130 33 -135 33 -115 2 23 -34 76 -52 180 -61 110 -8 162 -30
231 -95 29 -27 70 -57 91 -67 21 -10 40 -19 42 -20 2 -1 -2 -9 -9 -18 -30 -36
-121 -6 -195 66 -33 32 -48 39 -80 39 -22 0 -78 12 -124 25 -47 14 -106 25
-131 25 -35 0 -53 6 -80 28 -88 72 -203 125 -358 164 -77 20 -84 23 -57 30 58
14 231 0 405 -32z m888 -426 c66 -29 173 -104 166 -115 -8 -14 -81 -11 -117 5
-18 7 -71 39 -117 70 -46 31 -88 56 -94 57 -6 0 -2 4 9 9 29 12 92 1 153 -26z
m-1033 -144 c27 0 34 -17 11 -26 -22 -8 -86 23 -86 42 0 15 2 15 25 0 13 -9
36 -16 50 -16z m161 -51 c52 -29 62 -49 26 -49 -9 0 -35 11 -57 25 -22 13 -48
25 -59 25 -15 0 -16 3 -6 15 18 22 36 19 96 -16z m-1274 -172 c7 -7 32 -18 56
-25 24 -7 45 -19 48 -26 3 -9 31 -17 71 -21 85 -9 150 -31 308 -104 72 -32
173 -72 226 -89 52 -16 108 -36 125 -45 36 -18 84 -62 84 -77 0 -15 -148 -12
-231 5 -75 16 -168 51 -392 149 -137 60 -239 92 -333 104 -53 6 -59 9 -62 32
-2 16 9 40 30 68 34 44 48 50 70 29z m44 -188 c178 -61 642 -243 657 -258 4
-4 -8 -16 -27 -26 -35 -19 -36 -19 -104 3 -38 12 -82 22 -100 22 -29 0 -31 2
-34 43 l-3 42 -127 32 c-188 47 -418 69 -457 44 -16 -10 15 -21 129 -45 41 -9
88 -24 105 -34 28 -17 30 -17 48 1 25 25 81 17 157 -21 49 -25 100 -78 100
-105 0 -19 -89 1 -138 31 -71 44 -83 44 -95 2 -5 -19 -16 -43 -24 -52 -14 -16
-19 -16 -52 -2 -20 8 -84 44 -143 79 -58 36 -125 72 -147 80 -41 14 -42 14
-27 -6 23 -33 106 -92 239 -168 67 -39 133 -80 147 -91 l25 -20 -57 0 c-50 0
-70 7 -155 52 -54 28 -130 68 -170 89 -44 23 -94 40 -127 44 l-56 7 26 48 c15
27 52 77 83 112 31 35 73 85 95 111 21 26 42 47 46 47 4 0 88 -27 186 -61z
m800 -330 c172 -92 172 -92 241 -94 94 -4 245 -61 291 -110 33 -36 35 -55 4
-55 -37 0 -140 -60 -204 -119 l-67 -61 -82 40 c-95 46 -126 71 -145 117 -10
22 -23 35 -42 38 -71 15 -160 49 -190 72 -34 26 -72 78 -72 100 0 28 198 -52
361 -147 81 -48 160 -83 168 -75 3 4 -1 18 -9 33 -11 20 -55 47 -158 98 -137
68 -205 117 -222 159 -5 14 -3 22 9 27 31 13 59 8 117 -23z m-348 5 c12 -8 22
-26 22 -40 0 -21 -4 -24 -40 -24 l-40 0 0 40 c0 45 18 52 58 24z m-874 -26
c13 -13 27 -33 31 -45 6 -22 5 -22 -22 -8 -57 30 -69 14 -25 -36 21 -23 48
-37 112 -55 46 -14 95 -32 108 -40 24 -16 25 -24 7 -80 -6 -18 2 -23 82 -47
105 -32 168 -68 188 -107 l15 -29 -45 -7 c-97 -14 -171 21 -312 144 -107 95
-169 137 -225 152 l-33 9 42 -38 c23 -20 81 -62 130 -91 110 -67 197 -152 213
-207 11 -35 19 -44 54 -57 54 -21 157 -88 230 -151 55 -48 286 -297 286 -309
0 -3 -35 -6 -77 -6 l-78 0 -89 101 c-299 335 -513 507 -768 619 -68 29 -78 37
-78 59 1 62 81 189 145 227 50 30 77 30 109 2z m369 -87 c32 -13 92 -50 134
-83 l76 -60 -32 -20 c-39 -25 -40 -45 -1 -53 25 -6 29 -9 19 -21 -21 -25 -64
-16 -122 27 -57 42 -67 66 -21 49 34 -13 44 -12 44 4 0 31 -29 40 -93 29 -59
-10 -63 -9 -82 12 -11 13 -43 35 -71 50 -50 26 -81 66 -68 87 11 17 154 4 217
-21z m-590 -218 c67 -51 26 -85 -43 -36 -40 29 -50 47 -27 56 23 10 34 7 70
-20z m935 -17 c37 -19 77 -45 89 -57 19 -22 48 -79 41 -84 -2 -1 -53 1 -114 4
-91 5 -116 10 -133 25 -12 11 -21 26 -21 34 0 18 52 112 63 112 4 0 38 -15 75
-34z m-731 -119 c205 -105 383 -266 646 -584 86 -105 157 -195 157 -198 0 -12
-87 3 -120 20 -39 20 -62 45 -120 130 -53 77 -144 169 -350 352 -177 157 -332
323 -303 323 4 0 45 -19 90 -43z m663 -91 c32 -25 69 -51 84 -57 14 -7 26 -15
26 -18 -1 -24 -51 -51 -96 -51 -13 0 -24 -4 -24 -9 0 -16 36 -22 107 -21 115
3 108 7 77 -50 -32 -58 -45 -61 -121 -25 -57 26 -125 86 -205 178 l-51 58 23
24 c43 46 95 37 180 -29z m-2226 -1320 c175 -99 298 -248 390 -471 43 -104
104 -315 91 -315 -11 0 -94 137 -145 240 -117 235 -199 341 -306 397 -30 15
-54 33 -54 39 0 6 -16 31 -36 57 -26 33 -34 52 -29 66 9 28 18 27 89 -13z
m-89 -121 c131 -73 261 -207 335 -347 26 -49 29 -58 14 -58 -37 0 -87 46 -167
154 -92 122 -131 160 -193 186 -45 20 -84 62 -84 92 0 24 9 21 95 -27z m-148
-160 c29 -19 70 -58 91 -87 35 -47 172 -280 172 -293 0 -3 -6 -5 -14 -5 -25 0
-73 48 -116 116 -23 36 -77 104 -121 152 -45 47 -90 104 -101 125 l-20 40 29
-7 c15 -4 51 -23 80 -41z m603 13 c28 -32 90 -148 90 -169 0 -17 -57 29 -78
64 -20 32 -55 137 -46 137 2 0 18 -15 34 -32z m192 -286 c25 -22 34 -80 15
-99 -17 -17 -50 -5 -66 25 -8 15 -15 71 -12 95 1 11 42 -2 63 -21z m-217 -107
c52 -54 87 -185 50 -185 -21 0 -44 40 -62 107 -8 32 -21 68 -29 80 -30 47 -3
46 41 -2z m-969 -135 c118 -151 144 -190 128 -190 -9 0 -51 36 -93 80 -75 78
-101 95 -101 66 0 -8 -4 -17 -8 -20 -10 -6 -132 71 -132 84 0 6 14 24 30 42
17 17 30 35 30 40 0 23 107 -51 146 -102z m703 66 c7 -8 11 -27 9 -43 l-3 -28
-22 23 c-25 24 -31 62 -9 62 7 0 19 -6 25 -14z m491 -160 c0 -57 -21 -76 -44
-40 -24 35 -31 87 -16 115 l13 23 23 -28 c17 -19 24 -39 24 -70z m-1387 2 c36
-24 67 -46 67 -50 0 -17 -53 -20 -84 -5 -29 15 -105 57 -116 65 -8 6 33 32 50
32 9 0 47 -19 83 -42z m-171 -40 c3 -21 10 -23 62 -26 58 -3 61 -5 117 -62 57
-58 139 -202 139 -243 0 -21 16 -22 24 -1 12 32 5 57 -29 104 -19 26 -38 62
-41 79 -6 26 -4 31 13 31 26 0 94 -50 122 -89 31 -44 75 -144 101 -230 12 -40
24 -79 26 -86 4 -10 -6 -9 -43 2 -69 21 -77 27 -83 59 -6 31 -31 43 -50 22 -6
-7 -20 -28 -31 -46 -28 -47 -52 -39 -60 18 -8 53 -44 140 -58 140 -21 0 -21
-20 1 -64 18 -37 19 -47 8 -60 -19 -23 -62 -19 -104 9 -49 33 -56 32 -56 -11
0 -32 -2 -35 -22 -29 -46 14 -66 35 -106 112 -48 91 -72 118 -145 167 -85 57
-96 105 -24 106 43 0 64 -14 165 -113 51 -49 95 -87 99 -83 11 11 -68 115
-126 166 l-56 49 29 30 c26 27 99 71 118 71 4 0 8 -10 10 -22z m1586 -124 l-4
-39 -12 29 c-7 16 -10 38 -6 48 10 33 26 5 22 -38z m-2544 -29 c8 -8 18 -40
21 -70 10 -74 21 -80 76 -45 84 55 139 47 139 -20 l0 -29 -29 17 -30 17 -50
-53 -51 -53 15 -59 c8 -32 15 -72 15 -89 0 -27 -3 -31 -28 -31 -34 0 -59 17
-119 81 -25 27 -52 49 -59 49 -28 0 -13 20 44 59 78 52 87 64 67 85 -9 9 -23
16 -31 16 -11 0 -14 16 -14 70 0 71 7 82 34 55z m1550 -16 c14 -17 45 -63 67
-102 23 -40 49 -80 57 -89 13 -16 13 -18 -2 -24 -29 -11 -67 27 -120 122 -28
50 -57 98 -65 108 -12 14 -11 16 12 16 16 0 35 -11 51 -31z m1080 -2 c12 -34
-6 -77 -34 -77 -24 0 -26 26 -8 77 14 38 29 38 42 0z m-1185 -4 c25 -21 133
-222 125 -235 -21 -34 -78 20 -131 126 -25 50 -52 99 -61 109 -14 16 -13 17
15 17 17 0 40 -8 52 -17z m1724 -293 c30 -33 77 -108 77 -124 0 -2 -9 -2 -20
1 -23 6 -70 58 -70 78 0 7 -15 30 -34 49 -31 34 -32 36 -11 36 14 0 37 -16 58
-40z m-530 -20 c24 -28 44 -86 34 -96 -7 -8 -57 37 -71 64 -7 15 -16 40 -20
55 -6 25 -5 27 13 18 10 -6 30 -24 44 -41z m-2748 6 c47 -28 88 -82 114 -152
18 -48 20 -49 67 -54 47 -5 49 -6 52 -38 3 -30 1 -33 -17 -27 -11 3 -48 -1
-82 -9 -33 -9 -66 -16 -73 -16 -8 0 -20 33 -30 82 -18 84 -36 129 -64 161 -43
49 -42 -3 4 -113 19 -47 39 -102 43 -122 8 -35 7 -38 -13 -38 -11 0 -54 -16
-93 -35 -83 -40 -106 -43 -151 -15 -24 15 -32 27 -30 43 3 19 9 22 53 22 l50
0 3 38 c3 34 -2 42 -57 96 -61 58 -69 76 -55 127 4 14 26 31 62 48 77 35 159
36 217 2z m-355 -141 c0 -20 -5 -25 -25 -25 -20 0 -25 5 -25 25 0 20 5 25 25
25 20 0 25 -5 25 -25z m670 -31 c0 -19 -4 -34 -10 -34 -5 0 -10 18 -10 41 0
24 4 38 10 34 6 -3 10 -22 10 -41z m2525 -17 c21 -32 31 -87 16 -87 -38 0 -72
43 -86 108 l-7 34 31 -16 c17 -9 38 -27 46 -39z m-3196 -79 c10 -26 -7 -61
-33 -66 -13 -3 -16 5 -16 42 0 40 3 46 20 46 12 0 24 -9 29 -22z m-89 -98 c0
-5 9 -19 20 -30 27 -27 18 -40 -26 -40 -37 0 -42 11 -22 55 11 25 28 34 28 15z
m554 -31 c-21 -23 -33 -24 -40 -4 -10 25 14 47 38 34 19 -10 19 -11 2 -30z
m-163 -99 c10 -6 19 -20 19 -30 0 -17 -7 -20 -40 -20 -38 0 -40 2 -40 30 0 24
4 30 21 30 11 0 29 -5 40 -10z m2007 -76 c196 22 200 21 177 -44 -8 -24 -52
-110 -96 -191 -77 -141 -108 -211 -123 -272 l-7 -29 52 29 c100 54 176 149
200 248 6 28 13 55 15 62 2 9 11 10 33 2 26 -9 36 -7 66 11 19 12 35 23 35 25
0 1 -11 33 -25 69 -23 62 -32 116 -20 116 4 0 18 -6 33 -13 15 -8 63 -24 107
-37 44 -12 83 -25 87 -29 9 -9 -101 -170 -184 -269 -113 -135 -295 -284 -449
-370 l-57 -31 15 47 c23 76 12 168 -40 327 -25 77 -48 161 -52 186 -7 47 9
154 25 164 4 3 19 -4 31 -14 23 -19 24 -23 21 -148 -2 -116 -1 -126 13 -109
11 15 15 48 15 139 0 65 5 127 10 138 10 18 12 18 35 3 20 -13 38 -15 83 -10z
m-269 -101 c107 -399 87 -751 -55 -979 -71 -115 -154 -178 -287 -218 l-72 -22
-21 -64 c-17 -51 -27 -68 -56 -86 -20 -13 -46 -37 -58 -54 -27 -38 -60 -139
-60 -185 0 -34 -12 -53 -96 -150 -63 -73 -167 -162 -351 -302 -76 -58 -171
-133 -211 -167 -61 -51 -77 -60 -105 -58 -19 2 -64 -4 -101 -12 -85 -20 -106
-20 -106 0 0 9 -14 21 -30 27 -20 8 -30 18 -30 32 0 38 92 184 117 185 7 0 15
-16 19 -35 3 -19 10 -35 14 -35 13 0 40 36 51 69 14 39 33 36 37 -7 7 -68 45
-19 62 78 19 117 21 120 40 120 12 0 23 -12 31 -35 7 -19 19 -37 26 -39 7 -3
13 -4 13 -3 0 1 6 38 14 82 20 113 30 135 61 135 23 0 25 -3 25 -49 0 -28 5
-53 12 -57 22 -14 38 28 36 98 -1 86 8 98 58 74 l37 -17 -8 101 c-6 89 -5 104
11 121 20 22 40 25 47 7 3 -7 2 -40 0 -74 -5 -49 -3 -62 10 -67 17 -6 28 16
47 93 17 66 35 90 69 90 l28 0 -5 69 c-3 47 3 107 18 192 20 108 24 120 36
104 8 -11 14 -44 14 -81 0 -100 19 -126 39 -51 6 23 16 91 21 151 11 109 30
176 49 176 14 0 14 -46 -1 -109 -10 -43 -9 -53 7 -77 17 -26 18 -27 31 -9 9
13 14 48 14 105 0 57 5 93 13 105 17 22 37 12 37 -19 0 -13 7 -29 15 -36 8 -7
15 -10 15 -7 0 2 7 41 15 85 9 45 21 134 28 199 l13 118 37 0 c36 0 37 1 37
37 0 21 -9 75 -21 120 -16 66 -18 89 -10 112 9 23 14 26 26 16 8 -7 20 -30 27
-52 11 -36 13 -38 25 -22 19 27 16 48 -17 114 -31 61 -40 130 -17 130 23 0 77
-40 97 -72 29 -47 46 -112 65 -240 9 -62 29 -155 46 -207 17 -56 29 -117 29
-150 l1 -56 24 28 c37 42 37 93 -1 232 -29 109 -30 134 -4 178 27 45 34 136
17 222 -13 66 -14 69 -26 46 -7 -13 -19 -60 -27 -104 -8 -44 -16 -82 -18 -84
-2 -3 -13 6 -25 18 -20 22 -35 77 -46 181 l-6 58 43 -6 c40 -6 48 -3 87 30 23
20 46 36 51 36 4 0 17 -35 29 -77z m-2194 41 c18 -8 47 -30 63 -49 36 -39 64
-50 91 -36 27 15 31 14 31 -9 0 -29 -27 -78 -49 -90 -32 -17 -132 -11 -178 10
l-43 19 0 79 c0 43 3 82 7 85 11 12 43 8 78 -9z m3060 -123 c-54 -98 -149
-186 -290 -267 -50 -28 -49 -28 54 86 57 63 120 129 140 146 36 32 110 84 118
84 2 0 -8 -22 -22 -49z m-2771 -109 c1 -49 0 -52 -24 -52 -15 0 -31 5 -38 12
-20 20 -14 65 11 83 37 26 49 16 51 -43z m426 -354 c42 -29 68 -65 76 -104 6
-29 4 -31 -50 -52 -30 -11 -70 -24 -89 -27 -33 -6 -36 -5 -62 42 -15 26 -28
63 -29 82 -1 29 5 39 33 58 43 29 79 29 121 1z m1800 -122 c0 -19 -39 -66 -55
-66 -30 0 -27 24 6 51 38 32 49 35 49 15z m-180 -115 c18 -35 11 -56 -45 -123
-30 -36 -55 -71 -55 -77 0 -6 -4 -11 -10 -11 -25 0 -8 76 33 151 43 81 59 93
77 60z m-100 -336 c-6 -7 -19 -15 -29 -18 -16 -4 -15 1 8 38 24 40 26 41 29
18 2 -13 -2 -30 -8 -38z m-872 -168 c3 -89 -3 -101 -32 -71 -18 18 -21 72 -5
127 17 64 34 39 37 -56z m832 78 c16 -20 5 -49 -32 -80 -37 -31 -188 -109
-196 -101 -7 8 187 196 203 196 7 0 18 -7 25 -15z m-190 -54 c0 -23 -20 -45
-82 -95 -27 -20 -48 -32 -48 -25 0 25 51 97 82 118 41 26 48 26 48 2z m-237
-184 c6 -16 -59 -91 -72 -82 -19 11 -12 38 16 67 29 30 48 35 56 15z m-1265
-686 c2 -13 -2 -44 -9 -69 -15 -53 -104 -192 -123 -192 -23 0 -95 59 -111 90
-9 17 -19 53 -22 79 -5 44 -3 50 19 65 14 9 65 23 113 31 48 7 90 17 93 20 13
13 37 -2 40 -24z"/>
<path d="M6393 9310 c-54 -24 -57 -45 -7 -37 40 7 64 23 64 43 0 18 -6 17 -57
-6z"/>
<path d="M6970 8849 c0 -12 -8 -28 -17 -35 -17 -13 -16 -16 12 -36 16 -13 70
-58 120 -102 115 -100 156 -119 244 -114 36 2 84 13 106 23 l40 18 -79 13
c-96 15 -137 31 -129 50 3 10 22 14 58 14 77 0 105 13 105 49 0 30 -18 41 -68
41 -18 0 -252 60 -374 96 -13 4 -18 0 -18 -17z m336 -94 c43 -18 40 -39 -5
-43 -33 -3 -91 14 -91 27 0 13 24 31 42 31 10 0 35 -7 54 -15z"/>
<path d="M7160 8532 c0 -16 36 -42 66 -47 16 -3 72 -9 124 -14 72 -6 112 -15
167 -39 102 -46 160 -42 133 9 -24 43 -87 59 -267 68 -94 4 -178 13 -190 19
-26 14 -33 15 -33 4z"/>
<path d="M6575 8203 c-13 -4 7 -11 54 -19 50 -9 81 -20 98 -36 l25 -23 -78 -5
c-44 -3 -79 -10 -81 -16 -2 -7 31 -20 84 -33 149 -38 268 -88 563 -238 300
-152 310 -156 280 -82 -17 40 -59 63 -172 93 -108 28 -143 44 -338 156 -74 43
-155 87 -180 98 l-45 21 50 -5 c92 -10 189 -45 358 -130 195 -98 300 -136 362
-132 l44 3 -122 56 c-67 31 -185 86 -262 122 -254 117 -391 159 -550 171 -38
2 -79 2 -90 -1z"/>
<path d="M5015 7311 c11 -5 63 -16 115 -26 209 -36 401 -106 792 -288 125 -58
278 -126 340 -150 105 -42 272 -97 293 -97 16 0 -49 62 -85 80 -19 10 -75 30
-125 44 -53 16 -211 86 -385 171 -458 224 -579 263 -820 271 -91 3 -137 1
-125 -5z"/>
<path d="M6346 8622 c-3 -6 -21 -14 -39 -18 -17 -3 -43 -11 -57 -16 -24 -9
-24 -10 -7 -23 15 -11 23 -11 45 1 15 8 36 14 47 14 11 0 27 5 35 10 13 8 13
11 -1 26 -10 10 -19 12 -23 6z"/>
<path d="M1873 3822 c-8 -5 -2 -14 18 -27 17 -11 46 -39 64 -62 39 -46 115
-110 115 -95 0 5 -18 36 -39 69 -53 82 -126 135 -158 115z"/>
<path d="M657 3323 c-12 -11 -8 -23 7 -23 7 0 26 -16 40 -35 28 -36 64 -49 52
-19 -3 9 -6 19 -6 23 0 5 -11 20 -25 35 -23 25 -54 34 -68 19z"/>
<path d="M4120 6255 c0 -3 16 -30 34 -59 37 -54 122 -140 291 -290 124 -111
196 -192 214 -243 26 -73 51 -103 106 -128 58 -25 100 -72 190 -210 57 -86
139 -236 149 -272 6 -17 1 -24 -21 -35 -15 -7 -28 -20 -28 -28 0 -20 97 -25
150 -8 l40 13 0 55 0 55 -32 -3 c-42 -4 -87 37 -81 73 5 21 2 23 -21 19 -25
-5 -32 2 -89 95 -195 313 -458 601 -844 925 -32 27 -58 45 -58 41z"/>
<path d="M4027 6131 c-30 -11 15 -51 119 -105 98 -50 99 -52 139 -124 23 -39
77 -115 120 -168 44 -53 110 -133 148 -177 49 -60 86 -120 138 -227 134 -275
152 -309 196 -360 39 -44 129 -109 137 -99 5 7 -252 429 -359 588 -196 293
-454 621 -489 621 -11 0 -33 11 -50 23 -34 26 -73 37 -99 28z"/>
<path d="M3910 6036 c0 -18 36 -73 73 -114 23 -25 85 -78 137 -117 116 -89
144 -118 302 -315 141 -176 224 -296 292 -422 39 -72 50 -103 61 -180 11 -72
19 -97 36 -110 23 -19 79 -25 79 -8 0 19 -62 174 -111 275 -167 350 -417 649
-774 925 -97 75 -95 73 -95 66z"/>
<path d="M3753 5859 c-46 -17 -30 -52 66 -146 49 -49 112 -106 141 -128 70
-53 205 -208 235 -269 27 -54 32 -95 13 -114 -9 -9 -7 -12 10 -12 31 0 92 -27
121 -53 40 -38 66 -87 131 -250 70 -177 112 -248 172 -291 40 -29 40 -29 33
-5 -12 38 -45 99 -85 159 -59 87 -79 134 -92 212 -12 70 -15 77 -103 188 -81
102 -309 370 -440 518 -26 28 -42 52 -37 52 27 0 167 -108 243 -187 152 -158
441 -563 475 -665 19 -59 58 -145 77 -168 23 -30 62 -50 96 -50 l34 0 -20 23
c-12 12 -42 58 -69 102 -26 44 -61 98 -79 120 -17 22 -61 90 -98 151 -195 325
-379 560 -540 690 -121 96 -231 144 -284 123z"/>
<path d="M3700 5620 c0 -5 7 -10 15 -10 8 0 43 -26 77 -59 70 -64 106 -87 119
-74 7 7 -63 72 -143 131 -32 23 -68 29 -68 12z"/>
<path d="M3626 5529 c22 -43 116 -141 222 -232 102 -87 151 -152 232 -300 61
-114 142 -227 160 -227 7 0 7 6 1 18 -5 9 -33 64 -61 122 -126 256 -312 476
-523 619 l-49 33 18 -33z"/>
<path d="M3941 5417 c-8 -11 -6 -18 10 -33 73 -66 215 -265 309 -434 55 -98
260 -532 255 -538 -2 -2 -20 4 -39 13 -45 22 -83 69 -131 165 -74 147 -112
177 -61 48 50 -127 112 -215 209 -295 57 -47 69 -45 94 15 18 43 9 71 -48 163
-26 42 -64 109 -84 150 -20 41 -109 202 -198 357 -115 203 -169 288 -188 297
-14 8 -42 34 -63 59 -40 50 -48 53 -65 33z"/>
<path d="M3390 5229 c13 -19 92 -104 176 -189 198 -203 241 -270 270 -419 12
-62 21 -81 53 -116 59 -64 96 -183 75 -240 -6 -14 -13 -10 -45 21 -22 21 -39
35 -39 31 0 -4 23 -48 51 -97 66 -116 98 -196 99 -242 0 -60 -16 -52 -53 25
-19 39 -76 128 -127 197 -94 126 -143 215 -155 283 -6 33 -5 37 13 37 11 0 27
11 36 25 9 14 20 23 25 21 4 -3 20 -37 35 -76 16 -39 30 -69 33 -67 8 9 -47
129 -98 215 -28 48 -85 128 -125 177 -80 100 -324 346 -324 328 0 -20 87 -127
168 -206 87 -84 132 -158 131 -216 -1 -78 -6 -75 -179 107 -90 95 -186 192
-212 214 -41 34 -48 37 -48 20 0 -11 23 -47 50 -80 28 -33 50 -63 50 -68 0 -4
-10 -18 -22 -31 l-21 -23 30 -38 c16 -20 97 -82 179 -137 130 -88 153 -108
182 -155 55 -92 38 -93 -50 -4 -45 46 -85 84 -89 84 -9 0 56 -106 199 -323 50
-77 114 -184 142 -238 28 -55 55 -97 61 -94 16 11 10 28 -47 130 -58 105 -86
169 -77 179 12 11 126 -160 313 -469 139 -231 249 -405 256 -405 10 0 1 21
-26 61 -33 48 -37 71 -17 88 20 16 49 -19 85 -100 29 -63 75 -115 93 -103 17
10 9 60 -15 95 -25 37 -44 89 -32 89 4 0 18 -7 31 -16 42 -27 45 -8 14 84 -17
48 -31 109 -32 136 -1 41 3 52 26 72 15 13 27 27 27 32 0 19 -123 309 -157
372 -19 36 -56 91 -82 122 l-46 58 -6 -33 c-3 -17 -9 -42 -13 -54 -5 -17 -3
-23 8 -23 26 0 78 -53 102 -105 17 -35 24 -68 24 -112 0 -66 -8 -80 -39 -64
-20 11 -38 54 -66 153 -16 59 -31 71 -79 65 -16 -2 -31 26 -88 167 -148 368
-259 560 -412 712 -82 81 -175 153 -222 171 -15 6 -14 1 6 -28z m317 -867 c3
-13 3 -25 0 -28 -9 -10 -47 35 -47 56 0 18 2 19 20 8 12 -7 23 -23 27 -36z
m443 -402 c14 -14 20 -33 20 -65 0 -40 -2 -45 -23 -45 -58 0 -86 59 -51 108
19 27 28 28 54 2z"/>
<path d="M3915 3803 c16 -39 33 -55 47 -47 13 9 9 21 -18 53 -35 42 -48 39
-29 -6z"/>
<path d="M1320 3781 c0 -5 -18 -16 -40 -25 -22 -9 -40 -21 -40 -27 0 -6 15
-29 34 -50 34 -36 41 -54 91 -231 9 -31 26 -69 38 -85 l22 -28 5 70 5 70 53
-1 c59 -2 60 1 37 67 -9 24 -16 58 -17 76 -1 27 -5 33 -24 33 -26 0 -48 19
-69 60 -23 45 -95 99 -95 71z"/>
<path d="M3070 3633 c0 -5 7 -36 15 -71 21 -88 84 -210 172 -333 41 -57 90
-135 109 -172 36 -70 48 -81 84 -75 19 3 17 7 -20 51 -80 98 -161 234 -304
515 -44 85 -56 104 -56 85z"/>
<path d="M1498 3151 c-22 -22 -23 -57 -3 -65 21 -8 47 22 43 52 -4 32 -18 36
-40 13z"/>
<path d="M4014 3049 c-3 -6 -2 -14 4 -18 5 -3 23 -31 39 -61 30 -55 55 -72 76
-51 8 8 4 18 -12 35 -12 13 -25 42 -28 65 -5 39 -8 41 -39 41 -18 0 -36 -5
-40 -11z"/>
<path d="M1720 2980 c0 -46 2 -51 18 -45 45 19 53 17 88 -21 l37 -39 -7 45
c-4 25 -16 55 -28 67 -18 19 -22 20 -35 7 -21 -21 -41 -17 -45 8 -2 12 -9 23
-15 26 -9 2 -13 -11 -13 -48z"/>
<path d="M1212 2618 c-30 -38 -33 -58 -11 -58 12 0 68 62 69 76 0 29 -29 19
-58 -18z"/>
<path d="M2807 1879 c-56 -56 -78 -84 -75 -99 2 -11 7 -19 12 -18 6 2 40 35
78 75 47 50 68 80 68 97 0 15 -1 25 -2 25 -2 -1 -38 -37 -81 -80z"/>
</g>
</svg>
